<svg width="881" height="332" viewBox="0 0 881 332" fill="none" xmlns="http://www.w3.org/2000/svg">
<path fill-rule="evenodd" clip-rule="evenodd" d="M193 103.189V0L0 74.7748V174.973L47.876 157.166L154.101 117.657L193 103.189Z" fill="#CEEC33"/>
<path d="M47.876 157.166V279.658L154.101 332V117.657L47.876 157.166Z" fill="url(#paint0_linear_170_92)"/>
<path d="M334.567 167.04L319.975 240H301.415L316.007 167.04H292.455L295.783 150.656H361.447L358.119 167.04H334.567ZM403.386 240L401.338 218.24H372.794L362.298 240H342.457L388.41 150.656H412.09L422.201 240H403.386ZM397.37 167.424H396.346L380.09 202.752H400.058L397.37 167.424ZM452.564 240H434.004L451.924 150.656H486.74C495.273 150.656 501.886 152.661 506.58 156.672C511.358 160.683 513.748 166.357 513.748 173.696C513.748 177.024 513.278 180.309 512.34 183.552C511.401 186.709 509.993 189.696 508.116 192.512C506.238 195.243 503.934 197.675 501.204 199.808C498.558 201.856 495.444 203.477 491.86 204.672L502.612 240H482.772L473.94 206.848H459.22L452.564 240ZM481.492 190.976C484.393 190.976 486.868 190.208 488.916 188.672C491.049 187.136 492.457 184.789 493.14 181.632C493.566 179.669 493.908 178.091 494.164 176.896C494.42 175.616 494.548 174.635 494.548 173.952C494.548 171.989 493.865 170.368 492.5 169.088C491.22 167.723 489.172 167.04 486.356 167.04H467.156L462.42 190.976H481.492ZM571.511 240L569.463 218.24H540.919L530.423 240H510.582L556.535 150.656H580.215L590.326 240H571.511ZM565.495 167.424H564.471L548.215 202.752H568.183L565.495 167.424ZM651.502 263.424H637.422C632.302 263.424 628.718 262.4 626.67 260.352C624.622 258.389 623.598 255.573 623.598 251.904C623.598 250.795 623.683 249.685 623.854 248.576C624.024 247.467 624.238 246.315 624.494 245.12L625.518 240.256C622.275 239.403 619.246 238.08 616.43 236.288C613.699 234.496 611.31 232.149 609.262 229.248C607.214 226.347 605.592 222.933 604.398 219.008C603.288 214.997 602.734 210.432 602.734 205.312C602.734 197.632 603.886 190.379 606.19 183.552C608.494 176.725 611.694 170.752 615.79 165.632C619.886 160.512 624.75 156.501 630.382 153.6C636.014 150.613 642.158 149.12 648.814 149.12C653.08 149.12 657.134 149.845 660.974 151.296C664.899 152.661 668.312 154.837 671.214 157.824C674.2 160.725 676.547 164.48 678.254 169.088C680.046 173.611 680.942 179.029 680.942 185.344C680.942 192.427 679.96 199.125 677.998 205.44C676.12 211.755 673.432 217.387 669.934 222.336C666.52 227.285 662.382 231.381 657.518 234.624C652.654 237.867 647.32 239.957 641.518 240.896L640.11 248.32H654.318L651.502 263.424ZM636.142 225.024C642.115 225.024 647.022 223.019 650.862 219.008C654.702 214.997 657.347 209.365 658.798 202.112L661.486 188.672C661.742 187.307 661.912 186.112 661.998 185.088C662.083 183.979 662.126 182.955 662.126 182.016C662.126 171.093 657.262 165.632 647.534 165.632C641.56 165.632 636.654 167.637 632.814 171.648C628.974 175.659 626.328 181.291 624.878 188.544L622.19 201.984C621.934 203.349 621.763 204.587 621.678 205.696C621.592 206.72 621.55 207.701 621.55 208.64C621.55 219.563 626.414 225.024 636.142 225.024ZM737.636 240L735.588 218.24H707.044L696.548 240H676.707L722.66 150.656H746.34L756.451 240H737.636ZM731.62 167.424H730.596L714.34 202.752H734.308L731.62 167.424ZM823.136 240L821.088 218.24H792.544L782.048 240H762.207L808.16 150.656H831.84L841.951 240H823.136ZM817.12 167.424H816.096L799.84 202.752H819.808L817.12 167.424Z" fill="white"/>
<defs>
<linearGradient id="paint0_linear_170_92" x1="107.721" y1="287.028" x2="51.6513" y2="85.9708" gradientUnits="userSpaceOnUse">
<stop stop-color="#CEEC33"/>
<stop offset="1" stop-color="#75861D"/>
</linearGradient>
</defs>
</svg>
