<svg width="1143" height="598" viewBox="0 0 1143 598" fill="none" xmlns="http://www.w3.org/2000/svg">
<path fill-rule="evenodd" clip-rule="evenodd" d="M348 185.865V0L0 134.685V315.162L86.3256 283.088L277.86 211.925L348 185.865Z" fill="#CEEC33"/>
<path fill-rule="evenodd" clip-rule="evenodd" d="M86.3256 503.721V298.071L277.86 227.036V598L86.3256 503.721Z" fill="#CEEC33"/>
<path d="M509.706 334V254.76H483.946V238.38H553.946V254.76H529.026V334H509.706ZM581.728 335.54C574.448 335.54 568.941 333.72 565.208 330.08C561.568 326.347 559.748 320.747 559.748 313.28C559.748 308.053 560.681 303.993 562.548 301.1C564.414 298.113 567.168 295.967 570.808 294.66C574.541 293.26 579.068 292.42 584.388 292.14L601.468 290.6V286.4C601.468 283.04 600.628 280.707 598.948 279.4C597.268 278 594.794 277.3 591.528 277.3C588.914 277.3 585.881 277.393 582.428 277.58C579.068 277.767 575.708 278 572.348 278.28C569.081 278.56 566.234 278.84 563.808 279.12L563.248 265.96C565.674 265.4 568.568 264.84 571.928 264.28C575.381 263.627 578.974 263.113 582.708 262.74C586.441 262.367 589.894 262.18 593.068 262.18C599.041 262.18 604.034 262.927 608.048 264.42C612.061 265.913 615.094 268.387 617.148 271.84C619.201 275.2 620.228 279.773 620.228 285.56V317.62C620.414 318.927 621.114 319.953 622.328 320.7C623.541 321.353 624.941 321.82 626.528 322.1L626.108 334.98C623.868 335.073 621.674 335.12 619.528 335.12C617.381 335.12 615.561 334.98 614.068 334.7C611.921 334.42 610.054 333.86 608.468 333.02C606.974 332.18 605.761 331.293 604.828 330.36C603.334 331.013 601.328 331.76 598.808 332.6C596.288 333.44 593.534 334.14 590.548 334.7C587.654 335.26 584.714 335.54 581.728 335.54ZM586.208 321.68C587.981 321.68 589.848 321.493 591.808 321.12C593.768 320.747 595.588 320.327 597.268 319.86C599.041 319.3 600.441 318.787 601.468 318.32V302.22L587.188 303.48C584.108 303.76 581.868 304.693 580.468 306.28C579.161 307.773 578.508 309.92 578.508 312.72C578.508 315.52 579.114 317.713 580.328 319.3C581.634 320.887 583.594 321.68 586.208 321.68ZM636.669 334V263.72H655.289V271.98C656.875 270.767 658.835 269.507 661.169 268.2C663.502 266.8 666.022 265.54 668.729 264.42C671.529 263.207 674.189 262.413 676.709 262.04V280.1C674.282 280.473 671.715 281.127 669.009 282.06C666.302 282.9 663.735 283.833 661.309 284.86C658.975 285.887 656.969 286.82 655.289 287.66V334H636.669ZM704.774 335.54C697.494 335.54 691.988 333.72 688.254 330.08C684.614 326.347 682.794 320.747 682.794 313.28C682.794 308.053 683.728 303.993 685.594 301.1C687.461 298.113 690.214 295.967 693.854 294.66C697.588 293.26 702.114 292.42 707.434 292.14L724.514 290.6V286.4C724.514 283.04 723.674 280.707 721.994 279.4C720.314 278 717.841 277.3 714.574 277.3C711.961 277.3 708.928 277.393 705.474 277.58C702.114 277.767 698.754 278 695.394 278.28C692.128 278.56 689.281 278.84 686.854 279.12L686.294 265.96C688.721 265.4 691.614 264.84 694.974 264.28C698.428 263.627 702.021 263.113 705.754 262.74C709.488 262.367 712.941 262.18 716.114 262.18C722.088 262.18 727.081 262.927 731.094 264.42C735.108 265.913 738.141 268.387 740.194 271.84C742.248 275.2 743.274 279.773 743.274 285.56V317.62C743.461 318.927 744.161 319.953 745.374 320.7C746.588 321.353 747.988 321.82 749.574 322.1L749.154 334.98C746.914 335.073 744.721 335.12 742.574 335.12C740.428 335.12 738.608 334.98 737.114 334.7C734.968 334.42 733.101 333.86 731.514 333.02C730.021 332.18 728.808 331.293 727.874 330.36C726.381 331.013 724.374 331.76 721.854 332.6C719.334 333.44 716.581 334.14 713.594 334.7C710.701 335.26 707.761 335.54 704.774 335.54ZM709.254 321.68C711.028 321.68 712.894 321.493 714.854 321.12C716.814 320.747 718.634 320.327 720.314 319.86C722.088 319.3 723.488 318.787 724.514 318.32V302.22L710.234 303.48C707.154 303.76 704.914 304.693 703.514 306.28C702.208 307.773 701.554 309.92 701.554 312.72C701.554 315.52 702.161 317.713 703.374 319.3C704.681 320.887 706.641 321.68 709.254 321.68ZM801.576 363.54V331.76C799.616 332.507 796.909 333.3 793.456 334.14C790.096 335.073 786.969 335.54 784.076 335.54C777.542 335.54 772.269 334.233 768.256 331.62C764.336 328.913 761.489 324.9 759.716 319.58C757.942 314.26 757.056 307.727 757.056 299.98C757.056 290.647 758.222 283.227 760.556 277.72C762.889 272.12 766.622 268.153 771.756 265.82C776.982 263.393 783.842 262.18 792.336 262.18C794.482 262.18 797.189 262.273 800.456 262.46C803.816 262.647 807.269 262.88 810.816 263.16C814.456 263.347 817.629 263.58 820.336 263.86V363.54H801.576ZM788.556 319.72C790.982 319.72 793.409 319.44 795.836 318.88C798.262 318.227 800.176 317.62 801.576 317.06V278.28C800.362 278.093 798.822 277.953 796.956 277.86C795.089 277.767 793.502 277.72 792.196 277.72C787.809 277.72 784.449 278.56 782.116 280.24C779.782 281.827 778.196 284.253 777.356 287.52C776.516 290.787 776.096 294.847 776.096 299.7C776.096 306.793 777.029 311.927 778.896 315.1C780.856 318.18 784.076 319.72 788.556 319.72ZM854.071 335.54C846.791 335.54 841.285 333.72 837.551 330.08C833.911 326.347 832.091 320.747 832.091 313.28C832.091 308.053 833.025 303.993 834.891 301.1C836.758 298.113 839.511 295.967 843.151 294.66C846.885 293.26 851.411 292.42 856.731 292.14L873.811 290.6V286.4C873.811 283.04 872.971 280.707 871.291 279.4C869.611 278 867.138 277.3 863.871 277.3C861.258 277.3 858.225 277.393 854.771 277.58C851.411 277.767 848.051 278 844.691 278.28C841.425 278.56 838.578 278.84 836.151 279.12L835.591 265.96C838.018 265.4 840.911 264.84 844.271 264.28C847.725 263.627 851.318 263.113 855.051 262.74C858.785 262.367 862.238 262.18 865.411 262.18C871.385 262.18 876.378 262.927 880.391 264.42C884.405 265.913 887.438 268.387 889.491 271.84C891.545 275.2 892.571 279.773 892.571 285.56V317.62C892.758 318.927 893.458 319.953 894.671 320.7C895.885 321.353 897.285 321.82 898.871 322.1L898.451 334.98C896.211 335.073 894.018 335.12 891.871 335.12C889.725 335.12 887.905 334.98 886.411 334.7C884.265 334.42 882.398 333.86 880.811 333.02C879.318 332.18 878.105 331.293 877.171 330.36C875.678 331.013 873.671 331.76 871.151 332.6C868.631 333.44 865.878 334.14 862.891 334.7C859.998 335.26 857.058 335.54 854.071 335.54ZM858.551 321.68C860.325 321.68 862.191 321.493 864.151 321.12C866.111 320.747 867.931 320.327 869.611 319.86C871.385 319.3 872.785 318.787 873.811 318.32V302.22L859.531 303.48C856.451 303.76 854.211 304.693 852.811 306.28C851.505 307.773 850.851 309.92 850.851 312.72C850.851 315.52 851.458 317.713 852.671 319.3C853.978 320.887 855.938 321.68 858.551 321.68ZM927.353 335.54C920.073 335.54 914.566 333.72 910.833 330.08C907.193 326.347 905.373 320.747 905.373 313.28C905.373 308.053 906.306 303.993 908.173 301.1C910.039 298.113 912.793 295.967 916.433 294.66C920.166 293.26 924.693 292.42 930.013 292.14L947.093 290.6V286.4C947.093 283.04 946.253 280.707 944.573 279.4C942.893 278 940.419 277.3 937.153 277.3C934.539 277.3 931.506 277.393 928.053 277.58C924.693 277.767 921.333 278 917.973 278.28C914.706 278.56 911.859 278.84 909.433 279.12L908.873 265.96C911.299 265.4 914.193 264.84 917.553 264.28C921.006 263.627 924.599 263.113 928.333 262.74C932.066 262.367 935.519 262.18 938.693 262.18C944.666 262.18 949.659 262.927 953.673 264.42C957.686 265.913 960.719 268.387 962.773 271.84C964.826 275.2 965.853 279.773 965.853 285.56V317.62C966.039 318.927 966.739 319.953 967.953 320.7C969.166 321.353 970.566 321.82 972.153 322.1L971.733 334.98C969.493 335.073 967.299 335.12 965.153 335.12C963.006 335.12 961.186 334.98 959.693 334.7C957.546 334.42 955.679 333.86 954.093 333.02C952.599 332.18 951.386 331.293 950.453 330.36C948.959 331.013 946.953 331.76 944.433 332.6C941.913 333.44 939.159 334.14 936.173 334.7C933.279 335.26 930.339 335.54 927.353 335.54ZM931.833 321.68C933.606 321.68 935.473 321.493 937.433 321.12C939.393 320.747 941.213 320.327 942.893 319.86C944.666 319.3 946.066 318.787 947.093 318.32V302.22L932.813 303.48C929.733 303.76 927.493 304.693 926.093 306.28C924.786 307.773 924.133 309.92 924.133 312.72C924.133 315.52 924.739 317.713 925.953 319.3C927.259 320.887 929.219 321.68 931.833 321.68Z" fill="white"/>
<path d="M537.606 506.72C532.006 506.72 526.78 505.927 521.926 504.34C517.166 502.753 512.966 500.513 509.326 497.62C505.78 494.82 502.98 491.46 500.926 487.54C498.966 483.62 497.986 479.373 497.986 474.8C497.986 472.933 498.126 470.507 498.406 467.52C498.78 464.44 499.2 461.033 499.666 457.3C500.226 453.473 500.833 449.553 501.486 445.54L514.366 447.22C513.34 453.38 512.5 458.98 511.846 464.02C511.286 468.967 511.006 472.467 511.006 474.52C511.006 478.533 512.126 482.08 514.366 485.16C516.606 488.24 519.733 490.667 523.746 492.44C527.76 494.213 532.38 495.1 537.606 495.1H577.226C584.04 495.1 589.173 493.233 592.626 489.5C596.173 485.86 597.946 480.493 597.946 473.4V468.5H610.966V473.4C610.966 479.933 609.613 485.673 606.906 490.62C604.293 495.66 600.466 499.58 595.426 502.38C590.48 505.273 584.413 506.72 577.226 506.72H537.606ZM590.386 472C586.933 472 583.48 471.627 580.026 470.88C576.573 470.133 573.213 468.687 569.946 466.54L577.366 456.88C578.673 457.72 579.933 458.42 581.146 458.98C582.36 459.54 583.713 459.913 585.206 460.1C586.7 460.287 588.426 460.38 590.386 460.38H618.106V472H590.386ZM618.106 472V460.38C619.226 460.38 619.973 460.893 620.346 461.92C620.72 462.947 620.906 464.347 620.906 466.12C620.906 467.893 620.72 469.34 620.346 470.46C619.973 471.487 619.226 472 618.106 472ZM618.168 472V460.38H687.328L680.608 466.26V409L686.068 413.62H663.948C658.908 413.62 654.988 414.227 652.188 415.44C649.388 416.653 647.428 418.94 646.308 422.3C645.281 425.66 644.768 430.56 644.768 437C644.768 443.44 645.281 448.34 646.308 451.7C647.428 455.06 649.388 457.347 652.188 458.56C654.988 459.773 658.908 460.38 663.948 460.38V469.48C655.828 469.48 649.434 468.453 644.768 466.4C640.101 464.347 636.741 460.94 634.688 456.18C632.728 451.42 631.748 445.027 631.748 437C631.748 429.067 632.728 422.533 634.688 417.4C636.741 412.173 640.101 408.3 644.768 405.78C649.434 403.167 655.828 401.86 663.948 401.86H693.628V472H618.168ZM618.168 472C616.954 472 616.208 471.487 615.928 470.46C615.554 469.34 615.368 467.893 615.368 466.12C615.368 464.347 615.554 462.947 615.928 461.92C616.208 460.893 616.954 460.38 618.168 460.38V472ZM650.648 390.52V376.94H663.808V390.52H650.648ZM669.828 390.52V376.94H682.988V390.52H669.828ZM730.487 472V460.38H748.407V472H730.487ZM706.407 504.06C705.194 504.06 703.934 503.967 702.627 503.78C701.227 503.687 699.827 503.593 698.427 503.5L699.547 491.88C700.947 491.973 702.254 492.067 703.467 492.16C704.587 492.253 705.52 492.3 706.267 492.3C710.467 492.3 713.827 490.713 716.347 487.54C718.96 484.367 720.267 479.933 720.267 474.24V401.86H733.427V474.24C733.427 480.12 732.26 485.3 729.927 489.78C727.594 494.26 724.42 497.76 720.407 500.28C716.394 502.8 711.727 504.06 706.407 504.06ZM748.407 472V460.38C749.62 460.38 750.367 460.893 750.647 461.92C751.02 462.947 751.207 464.347 751.207 466.12C751.207 467.893 751.02 469.34 750.647 470.46C750.367 471.487 749.62 472 748.407 472ZM748.461 472V460.38H783.461V472H748.461ZM783.461 472V460.38C784.674 460.38 785.421 460.893 785.701 461.92C786.074 462.947 786.261 464.347 786.261 466.12C786.261 467.893 786.074 469.34 785.701 470.46C785.421 471.487 784.674 472 783.461 472ZM748.461 472C747.247 472 746.501 471.487 746.221 470.46C745.847 469.34 745.661 467.893 745.661 466.12C745.661 464.347 745.847 462.947 746.221 461.92C746.501 460.893 747.247 460.38 748.461 460.38V472ZM783.461 472V460.38H818.461V472H783.461ZM818.461 472V460.38C819.674 460.38 820.421 460.893 820.701 461.92C821.074 462.947 821.261 464.347 821.261 466.12C821.261 467.893 821.074 469.34 820.701 470.46C820.421 471.487 819.674 472 818.461 472ZM783.461 472C782.247 472 781.501 471.487 781.221 470.46C780.847 469.34 780.661 467.893 780.661 466.12C780.661 464.347 780.847 462.947 781.221 461.92C781.501 460.893 782.247 460.38 783.461 460.38V472ZM818.461 472V460.38H853.461V472H818.461ZM853.461 472V460.38C854.674 460.38 855.421 460.893 855.701 461.92C856.074 462.947 856.261 464.347 856.261 466.12C856.261 467.893 856.074 469.34 855.701 470.46C855.421 471.487 854.674 472 853.461 472ZM818.461 472C817.247 472 816.501 471.487 816.221 470.46C815.847 469.34 815.661 467.893 815.661 466.12C815.661 464.347 815.847 462.947 816.221 461.92C816.501 460.893 817.247 460.38 818.461 460.38V472ZM853.461 472V460.38H888.461V472H853.461ZM888.461 472V460.38C889.674 460.38 890.421 460.893 890.701 461.92C891.074 462.947 891.261 464.347 891.261 466.12C891.261 467.893 891.074 469.34 890.701 470.46C890.421 471.487 889.674 472 888.461 472ZM853.461 472C852.247 472 851.501 471.487 851.221 470.46C850.847 469.34 850.661 467.893 850.661 466.12C850.661 464.347 850.847 462.947 851.221 461.92C851.501 460.893 852.247 460.38 853.461 460.38V472ZM888.461 472V460.38H923.461V472H888.461ZM923.461 472V460.38C924.674 460.38 925.421 460.893 925.701 461.92C926.074 462.947 926.261 464.347 926.261 466.12C926.261 467.893 926.074 469.34 925.701 470.46C925.421 471.487 924.674 472 923.461 472ZM888.461 472C887.247 472 886.501 471.487 886.221 470.46C885.847 469.34 885.661 467.893 885.661 466.12C885.661 464.347 885.847 462.947 886.221 461.92C886.501 460.893 887.247 460.38 888.461 460.38V472ZM923.461 472V460.38H947.261L940.541 465.7V401.86H953.561V472H923.461ZM923.461 472C922.247 472 921.501 471.487 921.221 470.46C920.847 469.34 920.661 467.893 920.661 466.12C920.661 464.347 920.847 462.947 921.221 461.92C921.501 460.893 922.247 460.38 923.461 460.38V472ZM929.061 390.52V376.94H942.221V390.52H929.061ZM948.241 390.52V376.94H961.401V390.52H948.241Z" fill="white"/>
</svg>
