<svg width="1560" height="644" viewBox="0 0 1560 644" fill="none" xmlns="http://www.w3.org/2000/svg">
<path fill-rule="evenodd" clip-rule="evenodd" d="M375 200.162V0L0 145.045V339.405L93.0233 304.864L299.419 228.227L375 200.162Z" fill="#CEEC33"/>
<path fill-rule="evenodd" clip-rule="evenodd" d="M93.0233 542.468V321L299.419 244.5V644L93.0233 542.468Z" fill="#CEEC33"/>
<path d="M535.589 343V263.76H509.829V247.38H579.829V263.76H554.909V343H535.589ZM607.61 344.54C600.33 344.54 594.824 342.72 591.09 339.08C587.45 335.347 585.63 329.747 585.63 322.28C585.63 317.053 586.564 312.993 588.43 310.1C590.297 307.113 593.05 304.967 596.69 303.66C600.424 302.26 604.95 301.42 610.27 301.14L627.35 299.6V295.4C627.35 292.04 626.51 289.707 624.83 288.4C623.15 287 620.677 286.3 617.41 286.3C614.797 286.3 611.764 286.393 608.31 286.58C604.95 286.767 601.59 287 598.23 287.28C594.964 287.56 592.117 287.84 589.69 288.12L589.13 274.96C591.557 274.4 594.45 273.84 597.81 273.28C601.264 272.627 604.857 272.113 608.59 271.74C612.324 271.367 615.777 271.18 618.95 271.18C624.924 271.18 629.917 271.927 633.93 273.42C637.944 274.913 640.977 277.387 643.03 280.84C645.084 284.2 646.11 288.773 646.11 294.56V326.62C646.297 327.927 646.997 328.953 648.21 329.7C649.424 330.353 650.824 330.82 652.41 331.1L651.99 343.98C649.75 344.073 647.557 344.12 645.41 344.12C643.264 344.12 641.444 343.98 639.95 343.7C637.804 343.42 635.937 342.86 634.35 342.02C632.857 341.18 631.644 340.293 630.71 339.36C629.217 340.013 627.21 340.76 624.69 341.6C622.17 342.44 619.417 343.14 616.43 343.7C613.537 344.26 610.597 344.54 607.61 344.54ZM612.09 330.68C613.864 330.68 615.73 330.493 617.69 330.12C619.65 329.747 621.47 329.327 623.15 328.86C624.924 328.3 626.324 327.787 627.35 327.32V311.22L613.07 312.48C609.99 312.76 607.75 313.693 606.35 315.28C605.044 316.773 604.39 318.92 604.39 321.72C604.39 324.52 604.997 326.713 606.21 328.3C607.517 329.887 609.477 330.68 612.09 330.68ZM662.552 343V272.72H681.172V280.98C682.758 279.767 684.718 278.507 687.052 277.2C689.385 275.8 691.905 274.54 694.612 273.42C697.412 272.207 700.072 271.413 702.592 271.04V289.1C700.165 289.473 697.598 290.127 694.892 291.06C692.185 291.9 689.618 292.833 687.192 293.86C684.858 294.887 682.852 295.82 681.172 296.66V343H662.552ZM730.657 344.54C723.377 344.54 717.871 342.72 714.137 339.08C710.497 335.347 708.677 329.747 708.677 322.28C708.677 317.053 709.611 312.993 711.477 310.1C713.344 307.113 716.097 304.967 719.737 303.66C723.471 302.26 727.997 301.42 733.317 301.14L750.397 299.6V295.4C750.397 292.04 749.557 289.707 747.877 288.4C746.197 287 743.724 286.3 740.457 286.3C737.844 286.3 734.811 286.393 731.357 286.58C727.997 286.767 724.637 287 721.277 287.28C718.011 287.56 715.164 287.84 712.737 288.12L712.177 274.96C714.604 274.4 717.497 273.84 720.857 273.28C724.311 272.627 727.904 272.113 731.637 271.74C735.371 271.367 738.824 271.18 741.997 271.18C747.971 271.18 752.964 271.927 756.977 273.42C760.991 274.913 764.024 277.387 766.077 280.84C768.131 284.2 769.157 288.773 769.157 294.56V326.62C769.344 327.927 770.044 328.953 771.257 329.7C772.471 330.353 773.871 330.82 775.457 331.1L775.037 343.98C772.797 344.073 770.604 344.12 768.457 344.12C766.311 344.12 764.491 343.98 762.997 343.7C760.851 343.42 758.984 342.86 757.397 342.02C755.904 341.18 754.691 340.293 753.757 339.36C752.264 340.013 750.257 340.76 747.737 341.6C745.217 342.44 742.464 343.14 739.477 343.7C736.584 344.26 733.644 344.54 730.657 344.54ZM735.137 330.68C736.911 330.68 738.777 330.493 740.737 330.12C742.697 329.747 744.517 329.327 746.197 328.86C747.971 328.3 749.371 327.787 750.397 327.32V311.22L736.117 312.48C733.037 312.76 730.797 313.693 729.397 315.28C728.091 316.773 727.437 318.92 727.437 321.72C727.437 324.52 728.044 326.713 729.257 328.3C730.564 329.887 732.524 330.68 735.137 330.68ZM827.458 372.54V340.76C825.498 341.507 822.792 342.3 819.338 343.14C815.978 344.073 812.852 344.54 809.958 344.54C803.425 344.54 798.152 343.233 794.138 340.62C790.218 337.913 787.372 333.9 785.598 328.58C783.825 323.26 782.938 316.727 782.938 308.98C782.938 299.647 784.105 292.227 786.438 286.72C788.772 281.12 792.505 277.153 797.638 274.82C802.865 272.393 809.725 271.18 818.218 271.18C820.365 271.18 823.072 271.273 826.338 271.46C829.698 271.647 833.152 271.88 836.698 272.16C840.338 272.347 843.512 272.58 846.218 272.86V372.54H827.458ZM814.438 328.72C816.865 328.72 819.292 328.44 821.718 327.88C824.145 327.227 826.058 326.62 827.458 326.06V287.28C826.245 287.093 824.705 286.953 822.838 286.86C820.972 286.767 819.385 286.72 818.078 286.72C813.692 286.72 810.332 287.56 807.998 289.24C805.665 290.827 804.078 293.253 803.238 296.52C802.398 299.787 801.978 303.847 801.978 308.7C801.978 315.793 802.912 320.927 804.778 324.1C806.738 327.18 809.958 328.72 814.438 328.72ZM879.954 344.54C872.674 344.54 867.167 342.72 863.434 339.08C859.794 335.347 857.974 329.747 857.974 322.28C857.974 317.053 858.907 312.993 860.774 310.1C862.641 307.113 865.394 304.967 869.034 303.66C872.767 302.26 877.294 301.42 882.614 301.14L899.694 299.6V295.4C899.694 292.04 898.854 289.707 897.174 288.4C895.494 287 893.021 286.3 889.754 286.3C887.141 286.3 884.107 286.393 880.654 286.58C877.294 286.767 873.934 287 870.574 287.28C867.307 287.56 864.461 287.84 862.034 288.12L861.474 274.96C863.901 274.4 866.794 273.84 870.154 273.28C873.607 272.627 877.201 272.113 880.934 271.74C884.667 271.367 888.121 271.18 891.294 271.18C897.267 271.18 902.261 271.927 906.274 273.42C910.287 274.913 913.321 277.387 915.374 280.84C917.427 284.2 918.454 288.773 918.454 294.56V326.62C918.641 327.927 919.341 328.953 920.554 329.7C921.767 330.353 923.167 330.82 924.754 331.1L924.334 343.98C922.094 344.073 919.901 344.12 917.754 344.12C915.607 344.12 913.787 343.98 912.294 343.7C910.147 343.42 908.281 342.86 906.694 342.02C905.201 341.18 903.987 340.293 903.054 339.36C901.561 340.013 899.554 340.76 897.034 341.6C894.514 342.44 891.761 343.14 888.774 343.7C885.881 344.26 882.941 344.54 879.954 344.54ZM884.434 330.68C886.207 330.68 888.074 330.493 890.034 330.12C891.994 329.747 893.814 329.327 895.494 328.86C897.267 328.3 898.667 327.787 899.694 327.32V311.22L885.414 312.48C882.334 312.76 880.094 313.693 878.694 315.28C877.387 316.773 876.734 318.92 876.734 321.72C876.734 324.52 877.341 326.713 878.554 328.3C879.861 329.887 881.821 330.68 884.434 330.68ZM953.235 344.54C945.955 344.54 940.449 342.72 936.715 339.08C933.075 335.347 931.255 329.747 931.255 322.28C931.255 317.053 932.189 312.993 934.055 310.1C935.922 307.113 938.675 304.967 942.315 303.66C946.049 302.26 950.575 301.42 955.895 301.14L972.975 299.6V295.4C972.975 292.04 972.135 289.707 970.455 288.4C968.775 287 966.302 286.3 963.035 286.3C960.422 286.3 957.389 286.393 953.935 286.58C950.575 286.767 947.215 287 943.855 287.28C940.589 287.56 937.742 287.84 935.315 288.12L934.755 274.96C937.182 274.4 940.075 273.84 943.435 273.28C946.889 272.627 950.482 272.113 954.215 271.74C957.949 271.367 961.402 271.18 964.575 271.18C970.549 271.18 975.542 271.927 979.555 273.42C983.569 274.913 986.602 277.387 988.655 280.84C990.709 284.2 991.735 288.773 991.735 294.56V326.62C991.922 327.927 992.622 328.953 993.835 329.7C995.049 330.353 996.449 330.82 998.035 331.1L997.615 343.98C995.375 344.073 993.182 344.12 991.035 344.12C988.889 344.12 987.069 343.98 985.575 343.7C983.429 343.42 981.562 342.86 979.975 342.02C978.482 341.18 977.269 340.293 976.335 339.36C974.842 340.013 972.835 340.76 970.315 341.6C967.795 342.44 965.042 343.14 962.055 343.7C959.162 344.26 956.222 344.54 953.235 344.54ZM957.715 330.68C959.489 330.68 961.355 330.493 963.315 330.12C965.275 329.747 967.095 329.327 968.775 328.86C970.549 328.3 971.949 327.787 972.975 327.32V311.22L958.695 312.48C955.615 312.76 953.375 313.693 951.975 315.28C950.669 316.773 950.015 318.92 950.015 321.72C950.015 324.52 950.622 326.713 951.835 328.3C953.142 329.887 955.102 330.68 957.715 330.68ZM1032.64 343L1057 247.38H1090.74L1114.96 343H1095.64L1090.32 323.68H1056.86L1051.82 343H1032.64ZM1059.94 308.14H1087.52L1076.74 263.06H1070.86L1059.94 308.14ZM1155.33 375.06C1147.86 375.06 1141.61 374.5 1136.57 373.38C1131.62 372.26 1127.89 370.207 1125.37 367.22C1122.85 364.327 1121.59 360.127 1121.59 354.62C1121.59 352.193 1121.91 350 1122.57 348.04C1123.31 346.173 1124.43 344.4 1125.93 342.72C1127.51 341.04 1129.47 339.313 1131.81 337.54C1130.5 336.607 1129.43 335.253 1128.59 333.48C1127.84 331.613 1127.47 329.607 1127.47 327.46C1127.47 326.34 1128.12 324.707 1129.43 322.56C1130.83 320.32 1132.18 318.36 1133.49 316.68C1131.62 315.84 1129.85 314.627 1128.17 313.04C1126.49 311.36 1125.09 309.12 1123.97 306.32C1122.94 303.52 1122.43 299.927 1122.43 295.54C1122.43 286.673 1124.95 280.42 1129.99 276.78C1135.12 273.047 1142.4 271.18 1151.83 271.18C1154.25 271.18 1156.87 271.367 1159.67 271.74C1162.47 272.113 1164.71 272.487 1166.39 272.86L1189.21 272.44V285.04L1178.57 284.9C1179.41 286.02 1180.15 287.467 1180.81 289.24C1181.55 290.92 1181.93 293.02 1181.93 295.54C1181.93 301.98 1180.81 306.973 1178.57 310.52C1176.42 314.067 1173.15 316.54 1168.77 317.94C1164.38 319.247 1158.83 319.9 1152.11 319.9C1151.36 319.9 1150.33 319.853 1149.03 319.76C1147.72 319.573 1146.65 319.433 1145.81 319.34C1145.43 320.273 1145.06 321.347 1144.69 322.56C1144.31 323.68 1144.13 324.473 1144.13 324.94C1144.13 326.153 1144.5 327.087 1145.25 327.74C1146.09 328.393 1147.72 328.86 1150.15 329.14C1152.67 329.327 1156.45 329.42 1161.49 329.42C1168.11 329.42 1173.39 330.027 1177.31 331.24C1181.32 332.453 1184.17 334.6 1185.85 337.68C1187.53 340.76 1188.37 345.1 1188.37 350.7C1188.37 359.007 1185.43 365.12 1179.55 369.04C1173.76 373.053 1165.69 375.06 1155.33 375.06ZM1154.35 361.2C1160.13 361.2 1164.29 360.5 1166.81 359.1C1169.42 357.793 1170.73 355.6 1170.73 352.52C1170.73 350.093 1170.26 348.32 1169.33 347.2C1168.49 346.08 1167.04 345.333 1164.99 344.96C1162.93 344.68 1160.13 344.54 1156.59 344.54C1155.65 344.54 1154.53 344.493 1153.23 344.4C1151.92 344.4 1150.57 344.353 1149.17 344.26C1147.86 344.26 1146.65 344.213 1145.53 344.12C1144.5 344.027 1143.75 343.98 1143.29 343.98C1141.23 345.38 1139.83 346.64 1139.09 347.76C1138.34 348.973 1137.97 350.56 1137.97 352.52C1137.97 354.667 1138.48 356.347 1139.51 357.56C1140.53 358.867 1142.21 359.8 1144.55 360.36C1146.97 360.92 1150.24 361.2 1154.35 361.2ZM1151.97 306.74C1156.26 306.74 1159.29 305.9 1161.07 304.22C1162.93 302.447 1163.87 299.553 1163.87 295.54C1163.87 291.527 1162.93 288.633 1161.07 286.86C1159.29 285.087 1156.26 284.2 1151.97 284.2C1147.86 284.2 1144.87 285.087 1143.01 286.86C1141.23 288.633 1140.35 291.527 1140.35 295.54C1140.35 299.553 1141.23 302.447 1143.01 304.22C1144.87 305.9 1147.86 306.74 1151.97 306.74ZM1227.46 344.54C1219.71 344.54 1213.55 343.233 1208.98 340.62C1204.5 338.007 1201.28 334.04 1199.32 328.72C1197.36 323.4 1196.38 316.727 1196.38 308.7C1196.38 300.02 1197.59 292.927 1200.02 287.42C1202.54 281.913 1206.18 277.853 1210.94 275.24C1215.7 272.533 1221.58 271.18 1228.58 271.18C1238.94 271.18 1246.73 273.793 1251.96 279.02C1257.28 284.247 1259.94 292.507 1259.94 303.8L1259.1 314.16H1215.14C1215.23 319.387 1216.3 323.307 1218.36 325.92C1220.41 328.533 1223.96 329.84 1229 329.84C1231.89 329.84 1235.06 329.793 1238.52 329.7C1241.97 329.513 1245.38 329.327 1248.74 329.14C1252.19 328.953 1255.13 328.767 1257.56 328.58L1257.98 341.6C1255.64 341.973 1252.7 342.393 1249.16 342.86C1245.61 343.327 1241.92 343.7 1238.1 343.98C1234.36 344.353 1230.82 344.54 1227.46 344.54ZM1215.14 302.26H1241.32C1241.32 295.913 1240.29 291.48 1238.24 288.96C1236.28 286.44 1233.06 285.18 1228.58 285.18C1224.19 285.18 1220.83 286.487 1218.5 289.1C1216.26 291.713 1215.14 296.1 1215.14 302.26ZM1272.32 343V272.72H1290.94V277.2C1292.43 276.267 1294.25 275.38 1296.4 274.54C1298.54 273.607 1300.78 272.813 1303.12 272.16C1305.54 271.507 1307.88 271.18 1310.12 271.18C1316.65 271.18 1321.69 272.347 1325.24 274.68C1328.88 276.92 1331.44 280.653 1332.94 285.88C1334.43 291.013 1335.18 297.92 1335.18 306.6V343H1316.42V307.58C1316.42 302.727 1316.14 298.853 1315.58 295.96C1315.02 292.973 1313.94 290.827 1312.36 289.52C1310.77 288.213 1308.44 287.56 1305.36 287.56C1303.68 287.56 1301.9 287.747 1300.04 288.12C1298.26 288.4 1296.54 288.82 1294.86 289.38C1293.27 289.94 1291.96 290.5 1290.94 291.06V343H1272.32ZM1378.4 344.54C1370.37 344.54 1364.07 343.327 1359.5 340.9C1355.02 338.38 1351.85 334.367 1349.98 328.86C1348.21 323.353 1347.32 316.12 1347.32 307.16C1347.32 298.293 1348.35 291.247 1350.4 286.02C1352.45 280.7 1355.77 276.92 1360.34 274.68C1365.01 272.347 1371.07 271.18 1378.54 271.18C1380.5 271.18 1382.79 271.32 1385.4 271.6C1388.01 271.88 1390.63 272.253 1393.24 272.72C1395.95 273.093 1398.23 273.467 1400.1 273.84L1399.4 288.82C1397.63 288.633 1395.62 288.493 1393.38 288.4C1391.14 288.213 1388.95 288.073 1386.8 287.98C1384.75 287.793 1383.07 287.7 1381.76 287.7C1377.75 287.7 1374.57 288.353 1372.24 289.66C1370 290.873 1368.41 292.927 1367.48 295.82C1366.64 298.62 1366.22 302.4 1366.22 307.16C1366.22 312.293 1366.64 316.4 1367.48 319.48C1368.32 322.56 1369.81 324.753 1371.96 326.06C1374.2 327.367 1377.47 328.02 1381.76 328.02C1383.07 328.02 1384.79 327.973 1386.94 327.88C1389.09 327.693 1391.28 327.507 1393.52 327.32C1395.85 327.133 1397.91 326.993 1399.68 326.9L1400.24 341.88C1398.37 342.253 1396.13 342.627 1393.52 343C1390.91 343.467 1388.25 343.84 1385.54 344.12C1382.93 344.4 1380.55 344.54 1378.4 344.54ZM1429.54 372.54L1438.5 343H1423.52L1406.86 272.72H1426.32L1438.78 327.18H1442.42L1454.88 272.72H1473.64L1449.42 372.54H1429.54Z" fill="white"/>
<path d="M707.181 544.72C701.581 544.72 696.354 543.927 691.501 542.34C686.741 540.753 682.541 538.513 678.901 535.62C675.354 532.82 672.554 529.46 670.501 525.54C668.541 521.62 667.561 517.373 667.561 512.8C667.561 510.933 667.701 508.507 667.981 505.52C668.354 502.44 668.774 499.033 669.241 495.3C669.801 491.473 670.408 487.553 671.061 483.54L683.941 485.22C682.914 491.38 682.074 496.98 681.421 502.02C680.861 506.967 680.581 510.467 680.581 512.52C680.581 516.533 681.701 520.08 683.941 523.16C686.181 526.24 689.308 528.667 693.321 530.44C697.334 532.213 701.954 533.1 707.181 533.1H746.801C753.614 533.1 758.748 531.233 762.201 527.5C765.748 523.86 767.521 518.493 767.521 511.4V506.5H780.541V511.4C780.541 517.933 779.188 523.673 776.481 528.62C773.868 533.66 770.041 537.58 765.001 540.38C760.054 543.273 753.988 544.72 746.801 544.72H707.181ZM759.961 510C756.508 510 753.054 509.627 749.601 508.88C746.148 508.133 742.788 506.687 739.521 504.54L746.941 494.88C748.248 495.72 749.508 496.42 750.721 496.98C751.934 497.54 753.288 497.913 754.781 498.1C756.274 498.287 758.001 498.38 759.961 498.38H787.681V510H759.961ZM787.681 510V498.38C788.801 498.38 789.548 498.893 789.921 499.92C790.294 500.947 790.481 502.347 790.481 504.12C790.481 505.893 790.294 507.34 789.921 508.46C789.548 509.487 788.801 510 787.681 510ZM787.742 510V498.38H856.902L850.182 504.26V447L855.642 451.62H833.522C828.482 451.62 824.562 452.227 821.762 453.44C818.962 454.653 817.002 456.94 815.882 460.3C814.856 463.66 814.342 468.56 814.342 475C814.342 481.44 814.856 486.34 815.882 489.7C817.002 493.06 818.962 495.347 821.762 496.56C824.562 497.773 828.482 498.38 833.522 498.38V507.48C825.402 507.48 819.009 506.453 814.342 504.4C809.676 502.347 806.316 498.94 804.262 494.18C802.302 489.42 801.322 483.027 801.322 475C801.322 467.067 802.302 460.533 804.262 455.4C806.316 450.173 809.676 446.3 814.342 443.78C819.009 441.167 825.402 439.86 833.522 439.86H863.202V510H787.742ZM787.742 510C786.529 510 785.782 509.487 785.502 508.46C785.129 507.34 784.942 505.893 784.942 504.12C784.942 502.347 785.129 500.947 785.502 499.92C785.782 498.893 786.529 498.38 787.742 498.38V510ZM820.222 428.52V414.94H833.382V428.52H820.222ZM839.402 428.52V414.94H852.562V428.52H839.402ZM900.062 510V498.38H917.982V510H900.062ZM875.982 542.06C874.768 542.06 873.508 541.967 872.202 541.78C870.802 541.687 869.402 541.593 868.002 541.5L869.122 529.88C870.522 529.973 871.828 530.067 873.042 530.16C874.162 530.253 875.095 530.3 875.842 530.3C880.042 530.3 883.402 528.713 885.922 525.54C888.535 522.367 889.842 517.933 889.842 512.24V439.86H903.002V512.24C903.002 518.12 901.835 523.3 899.502 527.78C897.168 532.26 893.995 535.76 889.982 538.28C885.968 540.8 881.302 542.06 875.982 542.06ZM917.982 510V498.38C919.195 498.38 919.942 498.893 920.222 499.92C920.595 500.947 920.782 502.347 920.782 504.12C920.782 505.893 920.595 507.34 920.222 508.46C919.942 509.487 919.195 510 917.982 510ZM918.035 510V498.38H941.835L935.115 503.7V439.86H948.135V510H918.035ZM918.035 510C916.822 510 916.075 509.487 915.795 508.46C915.422 507.34 915.235 505.893 915.235 504.12C915.235 502.347 915.422 500.947 915.795 499.92C916.075 498.893 916.822 498.38 918.035 498.38V510ZM923.635 428.52V414.94H936.795V428.52H923.635ZM942.815 428.52V414.94H955.975V428.52H942.815ZM1027.61 510C1019.49 510 1013.1 508.787 1008.43 506.36C1003.77 503.84 1000.41 500.013 998.353 494.88C996.393 489.653 995.413 483.073 995.413 475.14C995.413 467.113 996.393 460.487 998.353 455.26C1000.41 450.033 1003.77 446.16 1008.43 443.64C1013.1 441.12 1019.49 439.86 1027.61 439.86H1057.29V503.56H1044.27V447L1049.59 451.62H1027.61C1022.67 451.62 1018.79 452.227 1015.99 453.44C1013.19 454.56 1011.23 456.847 1010.11 460.3C1008.99 463.66 1008.43 468.607 1008.43 475.14C1008.43 481.58 1008.99 486.48 1010.11 489.84C1011.23 493.107 1013.15 495.347 1015.85 496.56C1018.65 497.773 1022.57 498.38 1027.61 498.38H1072.27V510H1027.61ZM1072.27 510V498.38C1073.49 498.38 1074.23 498.893 1074.51 499.92C1074.89 500.947 1075.07 502.347 1075.07 504.12C1075.07 505.893 1074.89 507.34 1074.51 508.46C1074.23 509.487 1073.49 510 1072.27 510ZM1013.05 428.52V414.94H1026.21V428.52H1013.05ZM1032.23 428.52V414.94H1045.39V428.52H1032.23ZM1088.91 510V410.04H1101.93V510H1088.91ZM1072.25 510V498.38H1088.91V510H1072.25ZM1072.25 510C1071.04 510 1070.29 509.487 1070.01 508.46C1069.64 507.34 1069.45 505.893 1069.45 504.12C1069.45 502.347 1069.64 500.947 1070.01 499.92C1070.29 498.893 1071.04 498.38 1072.25 498.38V510ZM1138.63 510V498.38H1155.43V510H1138.63ZM1125.61 510V410.04H1138.63V510H1125.61ZM1155.43 510V498.38C1156.55 498.38 1157.3 498.893 1157.67 499.92C1158.04 500.947 1158.23 502.347 1158.23 504.12C1158.23 505.893 1158.04 507.34 1157.67 508.46C1157.3 509.487 1156.55 510 1155.43 510ZM1155.38 510V498.38H1225.38L1220.9 502.3V478.92C1220.9 473.973 1220.25 469.913 1218.94 466.74C1217.73 463.473 1215.86 461.093 1213.34 459.6C1210.82 458.013 1207.69 457.22 1203.96 457.22H1173.3L1164.34 443.92L1170.78 431.74C1171.81 429.873 1172.88 427.913 1174 425.86C1175.21 423.713 1176.66 421.287 1178.34 418.58C1180.11 415.78 1182.35 412.42 1185.06 408.5L1195.98 414.8C1193.37 418.813 1191.22 422.127 1189.54 424.74C1187.95 427.353 1186.6 429.64 1185.48 431.6C1184.36 433.467 1183.29 435.333 1182.26 437.2L1175.68 449.8L1172.88 445.6H1203.96C1209.84 445.6 1214.74 446.627 1218.66 448.68C1222.58 450.64 1225.61 453.253 1227.76 456.52C1230 459.787 1231.59 463.427 1232.52 467.44C1233.55 471.36 1234.06 475.187 1234.06 478.92V510H1155.38ZM1155.38 510C1154.17 510 1153.42 509.487 1153.14 508.46C1152.77 507.34 1152.58 505.893 1152.58 504.12C1152.58 502.347 1152.77 500.947 1153.14 499.92C1153.42 498.893 1154.17 498.38 1155.38 498.38V510ZM1277.29 542.06C1273.93 542.06 1270.38 541.78 1266.65 541.22C1263.01 540.753 1258.99 540.053 1254.61 539.12L1256.57 528.62C1261.51 529.18 1265.62 529.6 1268.89 529.88C1272.15 530.16 1274.95 530.3 1277.29 530.3C1284.75 530.3 1290.17 528.9 1293.53 526.1C1296.98 523.3 1298.71 519.24 1298.71 513.92V448.12L1304.03 451.62H1282.05C1277.1 451.62 1273.23 452.227 1270.43 453.44C1267.63 454.56 1265.67 456.847 1264.55 460.3C1263.43 463.66 1262.87 468.607 1262.87 475.14C1262.87 481.58 1263.43 486.48 1264.55 489.84C1265.67 493.107 1267.58 495.347 1270.29 496.56C1273.09 497.773 1277.01 498.38 1282.05 498.38H1298.71V510H1282.05C1273.93 510 1267.53 508.787 1262.87 506.36C1258.2 503.84 1254.84 500.013 1252.79 494.88C1250.83 489.653 1249.85 483.073 1249.85 475.14C1249.85 467.113 1250.83 460.487 1252.79 455.26C1254.84 450.033 1258.2 446.16 1262.87 443.64C1267.53 441.12 1273.93 439.86 1282.05 439.86H1311.73V513.78C1311.73 519.753 1310.33 524.84 1307.53 529.04C1304.73 533.333 1300.76 536.553 1295.63 538.7C1290.49 540.94 1284.38 542.06 1277.29 542.06Z" fill="white"/>
</svg>
