<svg width="83" height="83" viewBox="0 0 83 83" fill="none" xmlns="http://www.w3.org/2000/svg">
<g filter="url(#filter0_b_180_111)">
<rect x="15.293" width="69" height="69" rx="8" transform="rotate(12.8053 15.293 0)" fill="#949494" fill-opacity="0.18"/>
<rect x="15.6697" y="0.598384" width="68" height="68" rx="7.5" transform="rotate(12.8053 15.6697 0.598384)" stroke="url(#paint0_linear_180_111)"/>
</g>
<path d="M21.606 41.8793C21.606 41.8793 15.6223 56.9274 37.0748 61.8034C58.5273 66.6794 59.1485 50.4125 59.1485 50.4125" stroke="white" stroke-width="3"/>
<circle cx="34.5272" cy="27.895" r="5" transform="rotate(12.8053 34.5272 27.895)" fill="white"/>
<circle cx="34.5272" cy="27.895" r="5" transform="rotate(12.8053 34.5272 27.895)" fill="#41E3D1"/>
<circle cx="53.0546" cy="32.1059" r="5" transform="rotate(12.8053 53.0546 32.1059)" fill="white"/>
<circle cx="53.0546" cy="32.1059" r="5" transform="rotate(12.8053 53.0546 32.1059)" fill="#41E3D1"/>
<defs>
<filter id="filter0_b_180_111" x="-4.82773" y="-4.82773" width="92.2321" height="92.2326" filterUnits="userSpaceOnUse" color-interpolation-filters="sRGB">
<feFlood flood-opacity="0" result="BackgroundImageFix"/>
<feGaussianBlur in="BackgroundImageFix" stdDeviation="3.2"/>
<feComposite in2="SourceAlpha" operator="in" result="effect1_backgroundBlur_180_111"/>
<feBlend mode="normal" in="SourceGraphic" in2="effect1_backgroundBlur_180_111" result="shape"/>
</filter>
<linearGradient id="paint0_linear_180_111" x1="49.793" y1="0" x2="44.7844" y2="53.0721" gradientUnits="userSpaceOnUse">
<stop stop-color="white"/>
<stop offset="1" stop-color="#999999" stop-opacity="0.28"/>
</linearGradient>
</defs>
</svg>
