<svg width="100" height="100" viewBox="0 0 100 100" fill="none" xmlns="http://www.w3.org/2000/svg">
<g filter="url(#filter0_b_180_110)">
<rect y="34.8418" width="69" height="69" rx="8" transform="rotate(-30.3278 0 34.8418)" fill="#949494" fill-opacity="0.18"/>
<rect x="0.684049" y="35.0209" width="68" height="68" rx="7.5" transform="rotate(-30.3278 0.684049 35.0209)" stroke="url(#paint0_linear_180_110)"/>
</g>
<path d="M52.3423 16.2842L46.1577 32.4629L63.2612 29.7296L52.3423 16.2842ZM55.4768 54.2435L55.0256 55.674L55.4768 54.2435ZM58.0534 52.0205L59.5346 51.7838L58.0534 52.0205ZM38.9267 49.0234L38.4755 50.4539L38.9267 49.0234ZM41.9283 77.1831L37.8311 51.0081L34.8672 51.472L38.9644 77.647L41.9283 77.1831ZM38.4755 50.4539L55.0256 55.674L55.928 52.813L39.3779 47.5929L38.4755 50.4539ZM59.5346 51.7838L55.9539 29.3783L52.9915 29.8517L56.5721 52.2572L59.5346 51.7838ZM55.0256 55.674C57.5075 56.4568 59.9452 54.3536 59.5346 51.7838L56.5721 52.2572C56.6308 52.6243 56.2826 52.9248 55.928 52.813L55.0256 55.674ZM37.8311 51.0081C37.7737 50.6415 38.1216 50.3423 38.4755 50.4539L39.3779 47.5929C36.9007 46.8116 34.4655 48.9058 34.8672 51.472L37.8311 51.0081Z" fill="#FEDB44"/>
<defs>
<filter id="filter0_b_180_110" x="-3.45664" y="-3.45566" width="101.312" height="101.312" filterUnits="userSpaceOnUse" color-interpolation-filters="sRGB">
<feFlood flood-opacity="0" result="BackgroundImageFix"/>
<feGaussianBlur in="BackgroundImageFix" stdDeviation="3.2"/>
<feComposite in2="SourceAlpha" operator="in" result="effect1_backgroundBlur_180_110"/>
<feBlend mode="normal" in="SourceGraphic" in2="effect1_backgroundBlur_180_110" result="shape"/>
</filter>
<linearGradient id="paint0_linear_180_110" x1="34.5" y1="34.8418" x2="29.4915" y2="87.9139" gradientUnits="userSpaceOnUse">
<stop stop-color="white"/>
<stop offset="1" stop-color="#999999" stop-opacity="0.28"/>
</linearGradient>
</defs>
</svg>
