<svg width="87" height="132" viewBox="0 0 87 132" fill="none" xmlns="http://www.w3.org/2000/svg">
<path d="M34 122.931V118.179H34.9861L36.2851 122.168L37.5909 118.179H38.577V122.931H38.0329V118.763H37.9309L36.5911 122.759H35.9859L34.6461 118.763H34.5441V122.931H34ZM40.3781 123C40.0652 123 39.8272 122.911 39.664 122.732C39.5008 122.553 39.4191 122.292 39.4191 121.948C39.4191 121.723 39.4576 121.539 39.5348 121.398C39.6118 121.255 39.7274 121.147 39.8816 121.074C40.0403 120.996 40.2353 120.948 40.4665 120.93L41.5138 120.827V120.531C41.5138 120.297 41.4617 120.132 41.3574 120.036C41.2576 119.939 41.108 119.891 40.9085 119.891C40.7952 119.891 40.6591 119.895 40.5005 119.905C40.3463 119.914 40.1921 119.926 40.038 119.939C39.8838 119.953 39.7478 119.967 39.63 119.981L39.6028 119.575C39.7116 119.551 39.843 119.529 39.9972 119.506C40.1513 119.483 40.3123 119.465 40.4801 119.451C40.6478 119.433 40.802 119.424 40.9425 119.424C41.201 119.424 41.4118 119.465 41.575 119.547C41.7383 119.625 41.8561 119.747 41.9287 119.912C42.0057 120.072 42.0443 120.278 42.0443 120.531V122.271C42.0533 122.371 42.0919 122.445 42.1599 122.491C42.2324 122.536 42.3231 122.567 42.4319 122.58L42.4115 123C42.348 123 42.2868 122.997 42.2279 122.993C42.1689 122.988 42.1123 122.979 42.0579 122.966C42.008 122.956 41.9581 122.945 41.9083 122.931C41.8493 122.908 41.7927 122.88 41.7383 122.849C41.6883 122.816 41.6385 122.777 41.5886 122.732C41.5025 122.768 41.3914 122.807 41.2554 122.849C41.1238 122.89 40.981 122.924 40.8269 122.952C40.6773 122.983 40.5277 123 40.3781 123ZM40.4665 122.553C40.5889 122.553 40.7158 122.541 40.8473 122.519C40.9788 122.495 41.1034 122.467 41.2214 122.436C41.3392 122.404 41.4367 122.374 41.5138 122.347V121.226L40.5277 121.322C40.3237 121.34 40.1763 121.399 40.0856 121.501C39.9995 121.601 39.9564 121.745 39.9564 121.934C39.9564 122.127 39.9995 122.278 40.0856 122.388C40.1717 122.498 40.2987 122.553 40.4665 122.553ZM44.1115 123C44.0071 123 43.8802 122.993 43.7306 122.979C43.5855 122.966 43.4404 122.949 43.2954 122.931C43.1502 122.908 43.021 122.887 42.9077 122.869L42.9349 122.409C43.0482 122.422 43.1752 122.438 43.3158 122.457C43.4608 122.474 43.6014 122.491 43.7374 122.505C43.8734 122.514 43.9823 122.519 44.0639 122.519C44.2497 122.519 44.4039 122.502 44.5263 122.47C44.6487 122.433 44.7416 122.374 44.8052 122.292C44.8686 122.209 44.9004 122.092 44.9004 121.941C44.9004 121.826 44.8754 121.736 44.8256 121.673C44.7802 121.608 44.6918 121.556 44.5603 121.514C44.4334 121.473 44.2475 121.434 44.0027 121.398C43.7487 121.356 43.5356 121.305 43.3634 121.246C43.1956 121.181 43.0709 121.088 42.9893 120.964C42.9077 120.84 42.8669 120.664 42.8669 120.435C42.8669 120.177 42.9258 119.976 43.0437 119.829C43.1616 119.682 43.3134 119.579 43.4994 119.52C43.6898 119.455 43.887 119.424 44.0911 119.424C44.218 119.424 44.3563 119.431 44.5059 119.444C44.66 119.458 44.8096 119.476 44.9548 119.499C45.0998 119.517 45.2245 119.536 45.3288 119.554L45.3152 120.015C45.2064 119.996 45.0794 119.981 44.9344 119.967C44.7892 119.948 44.6442 119.935 44.4991 119.926C44.354 119.912 44.2271 119.905 44.1183 119.905C43.9823 119.905 43.8598 119.921 43.751 119.953C43.6422 119.981 43.556 120.031 43.4926 120.105C43.4291 120.177 43.3974 120.28 43.3974 120.414C43.3974 120.514 43.42 120.597 43.4654 120.662C43.5107 120.721 43.5968 120.772 43.7238 120.813C43.8507 120.854 44.0343 120.895 44.2747 120.937C44.5558 120.982 44.7802 121.04 44.948 121.109C45.1202 121.177 45.2449 121.274 45.322 121.398C45.3991 121.521 45.4376 121.695 45.4376 121.92C45.4376 122.185 45.3832 122.399 45.2744 122.56C45.1701 122.715 45.0182 122.828 44.8188 122.897C44.6238 122.966 44.388 123 44.1115 123ZM47.293 123C47.157 123 47.0278 122.983 46.9054 122.952C46.783 122.924 46.6696 122.873 46.5653 122.801C46.4656 122.727 46.3771 122.626 46.3001 122.498C46.2231 122.364 46.1641 122.195 46.1233 121.989C46.0825 121.783 46.0621 121.532 46.0621 121.239C46.0621 120.831 46.1097 120.494 46.2049 120.228C46.3001 119.957 46.452 119.756 46.6605 119.623C46.8691 119.489 47.1456 119.424 47.4903 119.424C47.5764 119.424 47.6716 119.428 47.7759 119.437C47.8801 119.446 47.9799 119.458 48.0751 119.472C48.1749 119.486 48.2542 119.499 48.3132 119.513V118H48.8436V122.931H48.32V122.704C48.2474 122.746 48.1522 122.789 48.0343 122.835C47.9209 122.88 47.7985 122.919 47.6671 122.952C47.5401 122.983 47.4154 123 47.293 123ZM47.361 122.519C47.4789 122.519 47.5968 122.505 47.7147 122.477C47.8371 122.45 47.9505 122.417 48.0547 122.381C48.159 122.34 48.2452 122.302 48.3132 122.271V119.967C48.2588 119.957 48.1839 119.948 48.0887 119.939C47.9935 119.926 47.8937 119.914 47.7895 119.905C47.6897 119.895 47.5991 119.891 47.5175 119.891C47.2862 119.891 47.1048 119.941 46.9734 120.043C46.8419 120.143 46.7467 120.294 46.6878 120.497C46.6333 120.693 46.6061 120.941 46.6061 121.239C46.6061 121.514 46.6265 121.736 46.6673 121.906C46.7082 122.072 46.7626 122.199 46.8306 122.292C46.9031 122.378 46.9848 122.438 47.0754 122.47C47.166 122.502 47.2613 122.519 47.361 122.519ZM50.5661 123C50.2533 123 50.0152 122.911 49.852 122.732C49.6888 122.553 49.6072 122.292 49.6072 121.948C49.6072 121.723 49.6458 121.539 49.7228 121.398C49.7998 121.255 49.9155 121.147 50.0696 121.074C50.2283 120.996 50.4233 120.948 50.6545 120.93L51.7019 120.827V120.531C51.7019 120.297 51.6497 120.132 51.5454 120.036C51.4457 119.939 51.296 119.891 51.0966 119.891C50.9832 119.891 50.8472 119.895 50.6885 119.905C50.5343 119.914 50.3802 119.926 50.2261 119.939C50.0719 119.953 49.9359 119.967 49.818 119.981L49.7908 119.575C49.8996 119.551 50.0311 119.529 50.1853 119.506C50.3394 119.483 50.5003 119.465 50.6681 119.451C50.8359 119.433 50.99 119.424 51.1306 119.424C51.389 119.424 51.5998 119.465 51.7631 119.547C51.9263 119.625 52.0441 119.747 52.1167 119.912C52.1938 120.072 52.2323 120.278 52.2323 120.531V122.271C52.2414 122.371 52.2799 122.445 52.3479 122.491C52.4205 122.536 52.5112 122.567 52.62 122.58L52.5996 123C52.5361 123 52.4749 122.997 52.416 122.993C52.357 122.988 52.3003 122.979 52.2459 122.966C52.1961 122.956 52.1461 122.945 52.0963 122.931C52.0373 122.908 51.9807 122.88 51.9263 122.849C51.8764 122.816 51.8265 122.777 51.7767 122.732C51.6905 122.768 51.5794 122.807 51.4434 122.849C51.312 122.89 51.1691 122.924 51.015 122.952C50.8653 122.983 50.7157 123 50.5661 123ZM50.6545 122.553C50.7769 122.553 50.9039 122.541 51.0354 122.519C51.1668 122.495 51.2916 122.467 51.4094 122.436C51.5273 122.404 51.6248 122.374 51.7019 122.347V121.226L50.7157 121.322C50.5117 121.34 50.3643 121.399 50.2737 121.501C50.1875 121.601 50.1444 121.745 50.1444 121.934C50.1444 122.127 50.1875 122.278 50.2737 122.388C50.3598 122.498 50.4867 122.553 50.6545 122.553ZM53.2386 122.931V119.492H53.7622V119.953C53.8483 119.893 53.9571 119.829 54.0887 119.761C54.2201 119.687 54.3652 119.618 54.5239 119.554C54.6826 119.489 54.8412 119.444 55 119.417V119.96C54.8458 119.992 54.6894 120.036 54.5307 120.091C54.372 120.141 54.2247 120.196 54.0887 120.256C53.9571 120.315 53.8483 120.368 53.7622 120.414V122.931H53.2386Z" fill="white"/>
<path d="M85.9966 60.9698C86.0358 61.1923 85.7242 61.6959 85.6372 61.9184C85.3395 62.6751 85.0306 63.429 84.7217 64.1885C84.4157 64.9424 84.1067 65.6963 83.7894 66.4503C83.795 66.4364 83.3625 67.2655 83.3851 67.3795C82.6689 63.3233 80.4338 59.5342 76.8311 57.3643C74.8878 56.1958 72.6666 55.5949 70.3976 55.428C69.6227 55.3696 68.8448 55.3612 68.0698 55.4002C66.7865 55.4585 65.5173 55.6366 64.2957 55.9176C56.2197 57.7537 49.7611 64.4445 46.0123 71.5804C46.0095 71.5887 46.0068 71.597 46.0039 71.6054C45.6978 72.6515 45.4422 73.7113 45.2345 74.7769C44.8161 76.933 44.597 79.1307 44.583 81.3257C44.555 85.7686 45.3636 90.2421 47.1524 94.3289C50.0644 100.98 56.259 107.958 64.0037 108.531C72.8492 109.182 80.1193 102.21 83.8821 94.9521C82.8262 96.9885 82.3292 99.3166 81.2705 101.359C76.8142 109.95 66.896 118.179 56.6634 113.772C49.1181 110.523 44.1169 102.185 42.5977 94.4875C40.6292 84.5112 43.7799 74.6878 48.2925 65.8161C51.9739 58.5689 58.4662 51.5026 66.6882 49.5607C67.3481 49.4021 68.022 49.2825 68.7044 49.1935C69.3783 49.1044 70.0579 49.0461 70.7347 49.0182C74.169 48.8763 77.6032 49.5469 80.4394 51.625C83.4834 53.8506 85.3507 57.317 85.9966 60.9698Z" fill="white"/>
<path d="M86 60.7739C85.4868 61.9144 84.9738 63.0521 84.4606 64.1927C84.27 64.6189 83.311 67.3375 82.7951 67.1343C82.683 67.0891 82.1587 66.3043 82.0437 66.1914C81.6512 65.8102 81.1857 65.5081 80.7119 65.2456C79.8931 64.794 79.0015 64.4721 78.0958 64.2434C73.5255 63.0888 68.8599 64.4608 64.4017 65.4715C60.2464 66.4115 55.6591 67.1117 51.6497 65.2202C48.2429 63.611 45.7951 59.8254 46.8522 56C46.2353 58.2303 44.8614 60.2572 44.2446 62.5016C43.3501 65.7425 45.0016 69.1133 47.6906 70.9568C50.7888 73.0797 54.8096 73.1785 58.3902 72.6393C62.5175 72.021 66.5046 70.5559 70.6936 70.3413C73.9377 70.1747 78.7211 70.6942 80.367 74C80.3866 73.9633 80.4034 73.9238 80.4231 73.8871C81.4493 71.6089 82.4755 69.3307 83.5045 67.0496C84.3654 65.1327 85.3214 62.2842 86 60.7739Z" fill="white"/>
<path d="M34.0686 77.6257C33.3865 82.2431 37.9246 84.7878 41.8192 84.8524C44.135 84.8916 46.4564 84.4704 48.7475 84.1755C51.3328 83.8441 53.9182 83.5126 56.5036 83.184C61.3828 82.5605 66.306 81.6729 71.2126 81.3387C74.6479 81.1028 79.0898 81.8021 81.7715 84.2148C83.4876 85.7567 84.3128 87.9981 84.3706 90.2984C84.3953 91.2702 84.2963 92.2392 84.1093 93.1914C84.0323 93.5901 83.9388 93.9862 83.8287 94.3766C83.793 94.5058 83.7545 94.6322 83.7187 94.7614C83.6747 94.9046 83.628 95.0451 83.5785 95.1855C82.8771 97.2106 83.6197 95.3484 85.8007 89.599C84.9591 91.5679 83.9498 94.4467 83.2897 96C84.8353 92.374 86.9065 88.3155 86.9972 84.2485C87.0467 82.0353 86.4499 79.8108 84.9591 78.1509C83.5729 76.6062 81.6449 75.8197 79.6949 75.3225C74.8074 74.0755 69.9172 75.1793 65.0133 75.8057C59.3392 76.5303 53.6707 77.2942 47.9939 77.9824C45.3205 78.3054 42.3335 78.5554 39.8994 77.1341C37.7706 75.89 36.3184 73.5419 36.6952 71C36.5412 72.0504 35.7436 73.3115 35.3503 74.3002C34.9377 75.3338 34.2336 76.5106 34.0686 77.6257Z" fill="white"/>
<path d="M82.9043 94.9003C82.2793 96.8857 81.6571 98.868 81.032 100.854C82.0663 98.2121 83.1007 95.5707 84.135 92.9322C85.1003 89.5173 81.3307 87.6293 78.7366 87.0048C75.2933 86.1769 71.6511 85.9706 68.1249 85.9362C60.9537 85.8646 53.8295 86.8873 46.7551 87.9903C39.4483 89.1277 32.1333 90.3767 24.7381 90.6805C18.6316 90.9297 11.4632 90.7864 6.97179 85.8159C1.49865 79.7539 3.07228 71.2825 4.7925 64C4.47445 65.3407 3.68072 66.733 3.18015 68.0194C2.66851 69.3344 1.97157 70.6866 1.64523 72.0703C0.0743646 78.7168 -1.46055 86.1825 2.56341 92.2561C6.28592 97.8712 12.9621 98.8599 19.0741 98.8133C33.6627 98.7048 47.8668 94.3761 62.4415 94.0237C66.4545 93.9263 70.5254 94.101 74.483 94.8402C77.2874 95.3644 82.094 97.0805 80.9878 101C81.7538 98.2923 83.2417 95.7712 84.0908 93.0784C84.7158 91.093 85.3381 89.1105 85.9631 87.1252C86.129 86.598 85.6754 87.7526 85.775 87.5205C85.4403 88.314 85.1306 89.1219 84.8154 89.9241C84.1682 91.5685 83.4354 93.213 82.9043 94.9003Z" fill="white"/>
<path d="M60.9594 40.4048C56.4184 37.0294 50.3547 40.3316 47.6123 44.046C43.9958 48.9398 42.3893 54.8258 39.6191 60.0694C37.2498 64.551 33.753 69.6616 27.8674 71.0525C22.3547 72.3539 16.7866 69.4881 14.0302 65.5189C12.1872 62.8646 11.3797 59.7196 11.2852 56.6153C11.2489 55.3925 11.3213 54.1697 11.4717 52.9497C11.7306 50.8321 13.5597 45.3691 11.0429 52.543C11.5719 51.0355 12.1454 49.5281 12.5881 47.999C12.627 47.8607 12.8693 47.454 12.6744 47.6574C12.3681 47.9745 12.254 48.8178 12.1287 49.1756C10.2049 54.655 8.2894 60.1399 9.26106 65.8686C10.1715 71.2287 13.9384 76.4668 20.3502 77.7573C26.6869 79.0343 31.8598 75.0678 34.9864 70.6241C38.7227 65.3156 40.5155 59.2234 43.5113 53.622C44.9479 50.938 46.8717 48.1264 49.9844 46.6677C52.7546 45.3691 56.2681 45.2443 58.6847 47.0392C58.5205 46.9172 59.7566 44.0379 59.8624 43.7314C59.9738 43.3844 61.2406 40.6135 60.9594 40.4048Z" fill="white"/>
<path d="M75.5343 32.6946C67.0417 26.2145 56.5287 22.582 49.1088 14.6905C45.2987 10.6422 42.4892 5.64274 42.2251 0.00554264C42.2251 0.0027698 42.2251 0 42.2251 0C42.2251 0 35.689 10.3705 33.1851 19.4127C33.1823 19.421 33.1823 19.4265 33.1796 19.4376C32.9239 20.1225 32.6932 20.813 32.4932 21.5062C31.7066 24.2097 31.7928 26.9991 33.249 29.4615C34.2494 31.1473 35.4583 32.6835 36.3893 34.4193C37.5565 36.5932 38.468 38.9085 39.1183 41.2904C39.3573 42.1638 39.5629 43.0456 39.7297 43.9357C39.8492 44.5596 39.8213 44.5817 40.1826 43.9911C40.4522 43.553 40.7079 43.1066 40.9524 42.6519C41.4165 41.7812 41.839 40.8828 42.2364 39.9761L43.7314 36.718L44.365 35.3399L44.3678 35.3315C44.8125 34.2612 45.1876 33.1493 45.6045 32.104C46.1241 30.7952 46.6938 29.564 46.6188 28.1221C46.4632 25.097 44.3706 22.8122 42.5225 20.6078C40.6523 18.3812 39.2684 16.0104 38.8737 13.0906C38.7153 11.9122 38.7153 10.7114 38.8654 9.53303C39.2156 8.88696 39.46 8.09947 39.7046 7.38685C39.7075 7.38685 39.7075 7.38407 39.7075 7.38407C39.7075 7.3813 39.7102 7.3813 39.7102 7.37853C40.6578 17.1112 48.7753 24.1792 56.6593 29.0261C65.5799 34.5136 75.9595 38.9474 81.4064 48.4194C84.1103 53.1249 85.3886 58.7677 83.549 64C84.1353 62.4361 85.3136 59.8989 86.0029 57.9968C89.546 48.2391 83.0793 38.451 75.5343 32.6946ZM40.2521 27.3347C40.4939 27.6286 40.7412 27.9281 40.9885 28.2248L40.9913 28.2275C41.0441 28.2913 41.0997 28.3607 41.1581 28.4272C42.039 29.4975 42.87 30.6815 43.4091 31.9514C43.4091 31.9543 43.409 31.9543 43.4118 31.957C43.4451 32.0652 43.4757 32.1789 43.5063 32.2898C43.7564 33.2492 43.7981 34.2279 43.6758 35.2041C43.4785 36.1773 42.9228 37.3225 42.6254 37.8909C42.6226 37.8937 42.6225 37.8964 42.6198 37.8993C42.5642 38.0045 42.5198 38.0905 42.4864 38.1488C42.4837 38.1543 42.4808 38.1599 42.4781 38.1626C42.467 38.1821 42.4586 38.2042 42.4475 38.2181C42.4391 38.232 42.4336 38.2431 42.4336 38.2431L42.0362 37.1728C41.8973 36.5294 41.8445 35.7863 41.6999 35.2484C41.0914 32.9691 40.2438 30.7508 39.1655 28.6518C37.6426 25.7015 34.947 23.0978 34.5607 19.6789C34.5357 19.457 34.5191 19.2352 34.5135 19.0106C34.5135 19.0106 35.2304 16.8589 36.242 14.3245C36.5505 13.5536 36.8839 12.7468 37.2341 11.9538C37.4926 11.3714 37.7537 10.8002 38.0233 10.2567C37.637 11.2162 37.2618 12.1811 36.9312 13.1544C36.0613 15.7109 35.9252 18.4865 36.6171 21.0986C37.2618 23.5609 38.6958 25.4464 40.2521 27.3347Z" fill="white"/>
<path d="M31 39V46H24C24 45.9908 24 45.9817 24 45.9695C24 42.1219 27.1356 39 31 39Z" fill="white"/>
<path d="M31 35V37.8889C26.1257 37.8889 22.1612 41.5152 22.1612 45.9736C22.1612 45.9815 22.1612 45.9895 22.1612 46H19C19 45.9921 19 45.9842 19 45.9736C19.0029 39.9246 24.3839 35 31 35Z" fill="white"/>
<path d="M31 29V32.1176C23.3483 32.1176 17.1228 38.3327 17.1228 45.9715C17.1228 45.9801 17.1228 45.9886 17.1228 46H14C14 45.9915 14 45.9829 14 45.9715C14 36.6134 21.6261 29 31 29Z" fill="white"/>
<path d="M31 24V27.0787C20.5691 27.0787 12.0826 35.5543 12.0826 45.9719C12.0826 45.9803 12.0826 45.9888 12.0826 46H9C9 45.9916 9 45.9831 9 45.9719C9 33.8563 18.8689 24 31 24Z" fill="white"/>
<path d="M31 46L30.5459 102L30.5434 101.997C30.5178 101.961 30.4872 101.924 30.4566 101.891L30.4541 101.889L30 46" fill="white"/>
<path d="M28.1181 103C28.0914 102.814 28.0531 102.628 28 102.444C28.2478 102.268 28.5163 102.117 28.8024 102C28.8761 102.148 28.941 102.301 29 102.459C28.6932 102.6 28.3982 102.781 28.1181 103Z" fill="white"/>
<path d="M28 107C28.0713 106.365 28.3035 105.759 28.6919 105.304C28.7906 105.188 28.8923 105.087 29 105C28.9044 105.848 28.5281 106.573 28 107Z" fill="white"/>
<path d="M28 104C28.1119 103.798 28.1745 103.581 28.1745 103.357C28.1745 103.333 28.1745 103.307 28.1723 103.281C28.396 103.165 28.642 103.071 28.9015 103C28.9642 103.149 29 103.305 29 103.465C29 103.487 29 103.508 28.9978 103.528C28.7584 103.601 28.5325 103.695 28.3199 103.808C28.2013 103.868 28.0962 103.933 28 104Z" fill="white"/>
<path d="M30 101.383L29.9973 101.631H29.9947C29.9653 101.631 29.9385 101.637 29.9091 101.653H29.9064C29.6578 101.719 29.4118 101.844 29.1685 102C29.1177 101.745 29.0641 101.492 29 101.248C29.2647 101.103 29.5402 101.02 29.8262 101C29.853 101.057 29.8797 101.114 29.9038 101.176L29.9064 101.18C29.9385 101.242 29.9706 101.31 29.9973 101.378L30 101.383Z" fill="white"/>
<path d="M31 103.524C30.6562 103.549 30.3199 103.606 29.9834 103.705H29.9797C29.9538 103.712 29.9279 103.717 29.8984 103.729H29.8947C29.658 103.799 29.4288 103.893 29.1996 104C29.1923 103.425 29.1257 102.865 29 102.332C29.2847 102.216 29.5805 102.125 29.8799 102.073H29.8836C29.9206 102.061 29.9575 102.056 29.9945 102.056H29.9982C30.1423 102.023 30.2903 102.009 30.4418 102C30.6858 102.469 30.8744 102.982 31 103.524Z" fill="white"/>
<path d="M32 104C31.7786 103.892 31.5499 103.835 31.3236 103.824C31.2531 103.185 31.1411 102.569 31 102H31.0292C31.1776 102.022 31.3212 102.062 31.4647 102.115C31.6862 102.678 31.8686 103.313 32 104Z" fill="white"/>
<path d="M34 104C33.5751 103.854 33.1099 103.737 32.6337 103.659C32.4799 103.424 32.2674 103.203 32 103C32.4542 103.079 32.8901 103.195 33.2784 103.343H33.2821C33.5861 103.541 33.8279 103.76 34 104Z" fill="white"/>
<path d="M29.9436 107.467C30.5367 107.229 31.2412 107.069 32 107C31.3879 107.507 30.2943 107.879 29 108C29.2391 107.804 29.5547 107.623 29.9436 107.467Z" fill="white"/>
<path d="M31 105C30.5097 106.443 29.3929 107.566 28 108C28.25 107.263 28.6688 106.578 29.2565 106.026C29.539 105.754 29.8507 105.529 30.1786 105.351C30.1818 105.351 30.1818 105.348 30.1851 105.348C30.1884 105.344 30.1884 105.344 30.1916 105.337C30.1948 105.337 30.1948 105.333 30.198 105.333C30.4578 105.192 30.7274 105.08 31 105Z" fill="white"/>
<path d="M32 105.033C31.9728 105.461 31.9249 105.872 31.861 106.264C31.5575 106.364 31.2668 106.614 31 107C31.1709 106.431 31.3019 105.782 31.385 105.082C31.5895 104.992 31.7955 104.977 32 105.033Z" fill="white"/>
<path d="M33.377 107.01C33.5877 107.02 33.7984 107.043 34 107.079C33.3891 108.21 32.0015 109 30.3852 109C30.2527 109 30.1264 108.992 30 108.983C31.219 108.666 32.2212 107.943 32.766 107.01C32.8804 107.003 33.0007 107 33.1151 107C33.2024 107 33.2897 107.003 33.377 107.01Z" fill="white"/>
<path d="M34 105.438C33.9507 105.631 33.8878 105.818 33.7982 106C33.444 105.944 33.0762 105.905 32.7041 105.888C32.4664 105.874 32.2377 105.874 32 105.885C32.1434 105.602 32.2466 105.303 32.3139 105C32.9013 105.085 33.4708 105.23 34 105.438Z" fill="white"/>
<path d="M31.8541 104.091C31.9513 104.319 32 104.555 32 104.803C32 104.867 31.9972 104.931 31.9891 104.993C31.8432 104.98 31.6945 104.976 31.5486 104.976C31.3675 104.976 31.181 104.984 31 105C31.0567 104.814 31.0865 104.625 31.0865 104.43C31.0865 104.284 31.0675 104.141 31.0406 104C31.3107 104.009 31.5865 104.039 31.8541 104.091Z" fill="white"/>
<path d="M34 104.836C34 104.891 33.9976 104.944 33.9903 105C33.6974 104.898 33.3899 104.827 33.0775 104.784C33.0871 104.715 33.0895 104.646 33.0895 104.575C33.0895 104.377 33.0581 104.188 33 104C33.3342 104.098 33.6538 104.234 33.9419 104.412C33.9806 104.55 34 104.689 34 104.836Z" fill="white"/>
<path d="M31 104.578C31 104.861 30.9719 105.137 30.9137 105.404C30.698 105.459 30.491 105.541 30.2861 105.648V105.651H30.284C30.2796 105.653 30.2754 105.655 30.271 105.66H30.2689V105.663C29.9863 105.808 29.7167 106.011 29.4709 106.26C28.9986 106.743 28.6708 107.351 28.5003 108C28.3451 107.856 28.1984 107.686 28.0733 107.508V107.505C28.0475 107.47 28.0237 107.435 28 107.397C28.0259 107.385 28.0517 107.37 28.0776 107.353C29.046 106.766 29.734 105.638 29.831 104.314C29.9712 104.239 30.1114 104.177 30.2559 104.129H30.258C30.271 104.127 30.284 104.122 30.2969 104.117H30.299C30.5147 104.05 30.7347 104.01 30.9568 104C30.9849 104.187 31 104.381 31 104.578Z" fill="white"/>
<path d="M35.3957 132C35.3345 132 35.2709 131.996 35.2049 131.986C35.1343 131.982 35.066 131.977 35 131.972L35.0636 131.48C35.1296 131.485 35.1908 131.49 35.2473 131.494C35.3038 131.504 35.3533 131.508 35.3957 131.508C35.6172 131.508 35.7961 131.424 35.9327 131.258C36.0694 131.096 36.1376 130.87 36.1376 130.578V127H36.6887V130.578C36.6887 130.861 36.6322 131.108 36.5192 131.32C36.4109 131.538 36.2602 131.705 36.067 131.82C35.8738 131.941 35.6501 132 35.3957 132ZM40.2054 130.467V129.975H40.9686V130.467H40.2054ZM37.4709 130.467V129.975H40.1065L39.6543 130.37V128.859C39.6543 128.517 39.6142 128.246 39.5342 128.047C39.4541 127.849 39.3222 127.707 39.1385 127.624C38.9595 127.537 38.7169 127.492 38.4107 127.492H37.8384V127H38.4107C38.7875 127 39.1102 127.058 39.3787 127.173C39.6472 127.289 39.8521 127.483 39.9935 127.756C40.1348 128.024 40.2054 128.392 40.2054 128.859V130.467H37.4709ZM40.9686 130.467V129.975C40.9968 129.975 41.0203 129.982 41.0392 129.996C41.0581 130.006 41.0722 130.022 41.0816 130.044C41.091 130.063 41.0981 130.089 41.1028 130.121C41.1076 130.148 41.1099 130.181 41.1099 130.218C41.1099 130.255 41.1076 130.29 41.1028 130.322C41.0981 130.354 41.091 130.382 41.0816 130.405C41.0722 130.424 41.0581 130.44 41.0392 130.454C41.0203 130.463 40.9968 130.467 40.9686 130.467ZM46.2338 130.467V129.975H46.9969V130.467H46.2338ZM40.9697 130.467C40.9414 130.467 40.9179 130.463 40.899 130.454C40.8801 130.44 40.866 130.424 40.8566 130.405C40.8472 130.382 40.8402 130.354 40.8354 130.322C40.8307 130.29 40.8283 130.255 40.8283 130.218C40.8283 130.167 40.8331 130.126 40.8425 130.093C40.8472 130.056 40.8614 130.029 40.8849 130.01C40.9038 129.987 40.932 129.975 40.9697 129.975V130.467ZM40.9697 130.467V129.975H46.1914L45.6826 130.426V128.796C45.6826 128.505 45.6402 128.265 45.5554 128.075C45.4754 127.881 45.3528 127.735 45.188 127.638C45.0278 127.541 44.8253 127.492 44.5803 127.492C44.3731 127.492 44.1799 127.527 44.0009 127.596C43.8266 127.662 43.6641 127.749 43.5134 127.86C43.3627 127.967 43.2214 128.087 43.0894 128.221C42.9622 128.35 42.8444 128.482 42.7361 128.616C42.6278 128.751 42.5289 128.872 42.4394 128.983L42.2627 128.491C42.3805 128.348 42.4982 128.205 42.616 128.061C42.7385 127.918 42.8656 127.784 42.9976 127.659C43.1295 127.53 43.2731 127.416 43.4286 127.319C43.5888 127.222 43.763 127.146 43.9515 127.09C44.1399 127.031 44.3519 127 44.5874 127C44.9218 127 45.1951 127.055 45.407 127.166C45.6238 127.277 45.7909 127.426 45.9087 127.61C46.0312 127.791 46.116 127.985 46.1631 128.193C46.2102 128.401 46.2338 128.602 46.2338 128.796V130.467H40.9697ZM41.973 129.975V127H42.5242V129.975H41.973ZM46.9969 130.467V129.975C47.0251 129.975 47.0487 129.982 47.0675 129.996C47.0864 130.006 47.1005 130.022 47.1099 130.044C47.1193 130.063 47.1264 130.089 47.1311 130.121C47.1359 130.148 47.1382 130.181 47.1382 130.218C47.1382 130.255 47.1359 130.29 47.1311 130.322C47.1264 130.354 47.1193 130.382 47.1099 130.405C47.1005 130.424 47.0864 130.44 47.0675 130.454C47.0487 130.463 47.0251 130.467 46.9969 130.467ZM46.9936 130.467V129.975H50.8587L50.4489 130.259V128.768C50.4489 128.445 50.4111 128.191 50.3358 128.006C50.2604 127.821 50.1309 127.69 49.9472 127.61C49.7681 127.532 49.5232 127.492 49.2123 127.492C49.0145 127.492 48.8166 127.506 48.6188 127.534C48.4256 127.562 48.2749 127.599 48.1666 127.645L48.4987 127.312C48.4704 127.423 48.4421 127.565 48.4139 127.735C48.3856 127.902 48.362 128.082 48.3432 128.276C48.3243 128.47 48.315 128.664 48.315 128.859C48.315 129.058 48.3243 129.252 48.3432 129.441C48.362 129.631 48.3832 129.795 48.4068 129.933C48.4303 130.072 48.4492 130.169 48.4633 130.225L47.9405 130.37C47.9216 130.311 47.8981 130.207 47.8698 130.058C47.8462 129.911 47.8227 129.732 47.7992 129.524C47.7803 129.316 47.7709 129.094 47.7709 128.859C47.7709 128.633 47.7803 128.413 47.7992 128.2C47.8227 127.983 47.8486 127.787 47.8769 127.61C47.9098 127.435 47.9405 127.294 47.9687 127.187C48.0723 127.146 48.2372 127.104 48.4633 127.062C48.6895 127.021 48.9391 127 49.2123 127C49.608 127 49.9377 127.058 50.2016 127.173C50.4701 127.289 50.6702 127.477 50.8022 127.735C50.934 127.99 51 128.334 51 128.768V130.467H46.9936ZM46.9936 130.467C46.9654 130.467 46.9418 130.463 46.923 130.454C46.9041 130.44 46.89 130.424 46.8806 130.405C46.8711 130.382 46.864 130.354 46.8594 130.322C46.8546 130.29 46.8523 130.255 46.8523 130.218C46.8523 130.167 46.857 130.126 46.8665 130.093C46.8711 130.056 46.8852 130.029 46.9088 130.01C46.9276 129.987 46.9559 129.975 46.9936 129.975V130.467Z" fill="white"/>
</svg>
