<svg width="110" height="111" viewBox="0 0 110 111" fill="none" xmlns="http://www.w3.org/2000/svg">
<g clip-path="url(#clip0_71_103)">
<path d="M46.6008 64.0388C51.4162 68.8542 59.2235 68.8542 64.0389 64.0388C68.8543 59.2235 68.8543 51.4162 64.0389 46.6008C59.2235 41.7854 51.4162 41.7854 46.6008 46.6008C41.7854 51.4162 41.7854 59.2235 46.6008 64.0388Z" fill="white"/>
<path fill-rule="evenodd" clip-rule="evenodd" d="M99.996 86.8352C104.383 80.6154 107.444 73.5186 108.943 65.986C111.052 55.3804 109.969 44.3875 105.831 34.3972C101.693 24.407 94.6857 15.8682 85.6947 9.8606C76.7037 3.85302 66.1332 0.646484 55.3198 0.646484C44.5065 0.646483 33.9359 3.85302 24.9449 9.8606C15.954 15.8682 8.94637 24.407 4.80827 34.3972C0.670174 44.3875 -0.412541 55.3805 1.69704 65.986C3.19536 73.5186 6.25621 80.6154 10.6437 86.8352C12.4336 89.3726 14.4444 91.7641 16.6599 93.9797L28.355 82.2846L53.6132 110.657L82.135 82.135L93.9797 93.9797C96.1953 91.7641 98.206 89.3726 99.996 86.8352ZM93.2976 80.1367C96.4554 75.3042 98.6779 69.8886 99.8153 64.1705C101.566 55.3701 100.667 46.2483 97.2337 37.9585C93.7999 29.6687 87.9851 22.5833 80.5245 17.5983C73.0639 12.6133 64.2926 9.95258 55.3198 9.95258C46.347 9.95258 37.5757 12.6133 30.1151 17.5983C22.6545 22.5833 16.8397 29.6687 13.406 37.9585C9.97224 46.2483 9.07382 55.3701 10.8243 64.1705C11.9617 69.8886 14.1843 75.3042 17.3421 80.1367L23.6919 73.787C21.6534 70.2958 20.1961 66.4724 19.3989 62.4649C17.9857 55.3604 18.711 47.9964 21.4831 41.3042C24.2551 34.6119 28.9494 28.8919 34.9723 24.8675C40.9952 20.8432 48.0762 18.6952 55.3198 18.6952C62.5635 18.6952 69.6445 20.8432 75.6674 24.8675C81.6903 28.8919 86.3845 34.6119 89.1566 41.3042C91.9286 47.9964 92.6539 55.3604 91.2407 62.4649C90.4436 66.4724 88.9862 70.2958 86.9478 73.787L93.2976 80.1367ZM36.0027 74.6369L35.9352 74.7044L54.0653 95.0697L76.204 72.9311C79.1717 69.4118 81.2105 65.189 82.1134 60.6494C83.1675 55.3501 82.6265 49.8573 80.5589 44.8655C78.4912 39.8736 74.9897 35.6071 70.4972 32.6053C66.0047 29.6035 60.7229 28.0013 55.3198 28.0013C49.9167 28.0013 44.635 29.6035 40.1425 32.6053C35.65 35.6071 32.1485 39.8736 30.0808 44.8655C28.0131 49.8573 27.4721 55.3501 28.5262 60.6494C29.5803 65.9487 32.1821 70.8164 36.0027 74.6369Z" fill="white"/>
</g>
<defs>
<clipPath id="clip0_71_103">
<rect width="110" height="111" fill="white"/>
</clipPath>
</defs>
</svg>
