<svg width="204" height="119" viewBox="0 0 204 119" fill="none" xmlns="http://www.w3.org/2000/svg">
<path d="M92.6581 66.7604V64.9178H94.3259V66.7604H92.6581ZM88.0833 70.6998C87.162 70.6998 86.336 70.5303 85.6053 70.1915C84.8852 69.8632 84.3186 69.4025 83.9056 68.8095C83.4926 68.2165 83.2861 67.544 83.2861 66.7921C83.2861 66.5803 83.302 66.2997 83.3338 65.9503C83.3656 65.6008 83.4079 65.209 83.4609 64.7748C83.5244 64.3406 83.5879 63.9011 83.6515 63.4564C83.7256 63.001 83.7944 62.5615 83.858 62.1379L85.9548 62.4239C85.8383 63.1334 85.7377 63.7847 85.6529 64.3777C85.5788 64.9601 85.5206 65.4578 85.4782 65.8708C85.4359 66.2838 85.4147 66.5856 85.4147 66.7763C85.4147 67.1999 85.5206 67.5652 85.7324 67.8723C85.9442 68.1794 86.246 68.4177 86.6378 68.5871C87.0402 68.7671 87.522 68.8571 88.0833 68.8571C88.6657 68.8571 89.137 68.7724 89.497 68.603C89.8571 68.4336 90.1165 68.2006 90.2754 67.9041C90.4448 67.6076 90.5295 67.274 90.5295 66.9033V55.5299H92.6581V66.9033C92.6581 67.6658 92.4569 68.333 92.0544 68.9048C91.6626 69.4766 91.1225 69.9161 90.4342 70.2232C89.7459 70.5409 88.9622 70.6998 88.0833 70.6998ZM94.3259 66.7604V64.9178C94.453 64.9178 94.5377 65.0025 94.5801 65.1719C94.6225 65.3308 94.6436 65.5531 94.6436 65.8391C94.6436 66.1144 94.6225 66.3368 94.5801 66.5062C94.5377 66.6757 94.453 66.7604 94.3259 66.7604Z" fill="white"/>
<path d="M106.674 66.7604V64.9178H108.342V66.7604H106.674ZM94.3315 66.7604V64.9178H106.34L104.545 66.4745V63.1387C104.545 62.5351 104.466 62.0532 104.307 61.6932C104.148 61.3225 103.915 61.0525 103.608 60.8831C103.312 60.7136 102.952 60.6289 102.528 60.6289C102.073 60.6289 101.638 60.7189 101.225 60.8989C100.823 61.079 100.447 61.3119 100.098 61.5979C99.7482 61.8838 99.4252 62.1909 99.1287 62.5192C98.8322 62.8475 98.5674 63.1652 98.3345 63.4723C98.1015 63.7688 97.9003 64.0229 97.7308 64.2347L97.2543 62.6939C97.6673 62.1962 98.0379 61.7408 98.3662 61.3278C98.6945 60.9148 99.0069 60.5495 99.3034 60.2318C99.6105 59.9141 99.9282 59.6494 100.257 59.4376C100.595 59.2258 100.961 59.0669 101.353 58.961C101.755 58.8445 102.221 58.7863 102.75 58.7863C103.46 58.7863 104.064 58.9081 104.561 59.1516C105.059 59.3846 105.461 59.7076 105.768 60.1206C106.086 60.5336 106.314 60.9996 106.452 61.5184C106.6 62.0373 106.674 62.5774 106.674 63.1387V66.7604H94.3315ZM96.333 64.9178V58.7863H98.4615V64.9178H96.333ZM94.3315 66.7604C94.2045 66.7604 94.1197 66.6757 94.0774 66.5062C94.035 66.3368 94.0138 66.1144 94.0138 65.8391C94.0138 65.5531 94.035 65.3308 94.0774 65.1719C94.1197 65.0025 94.2045 64.9178 94.3315 64.9178V66.7604ZM108.342 66.7604V64.9178C108.469 64.9178 108.554 65.0025 108.596 65.1719C108.638 65.3308 108.659 65.5531 108.659 65.8391C108.659 66.1144 108.638 66.3368 108.596 66.5062C108.554 66.6757 108.469 66.7604 108.342 66.7604ZM100.622 57.3408V55.5299H102.75V57.3408H100.622Z" fill="white"/>
<path d="M108.339 66.7604V64.9178H115.757L115.106 65.4737V60.1683L115.646 60.6289H113.645C113.179 60.6289 112.813 60.6872 112.549 60.8036C112.284 60.9201 112.099 61.1372 111.993 61.4549C111.887 61.762 111.834 62.2015 111.834 62.7733C111.834 63.3981 111.887 63.8641 111.993 64.1712C112.099 64.4677 112.284 64.6689 112.549 64.7748C112.813 64.8701 113.179 64.9178 113.645 64.9178V66.5698C112.745 66.5698 112.003 66.4427 111.421 66.1885C110.838 65.9344 110.404 65.532 110.118 64.9813C109.843 64.42 109.705 63.6841 109.705 62.7733C109.705 61.905 109.843 61.1743 110.118 60.5813C110.404 59.9882 110.838 59.5435 111.421 59.2469C112.003 58.9398 112.745 58.7863 113.645 58.7863H117.235V66.7604H108.339ZM108.339 66.7604C108.212 66.7604 108.127 66.6757 108.085 66.5062C108.043 66.3368 108.021 66.1144 108.021 65.8391C108.021 65.5531 108.043 65.3308 108.085 65.1719C108.127 65.0025 108.212 64.9178 108.339 64.9178V66.7604ZM112.803 57.3249V55.5141H114.931V57.3249H112.803Z" fill="white"/>
<path d="M118.98 66.7604V64.9178H127.049L126.033 65.9661V55.5299H128.161V66.7604H118.98ZM121.188 64.9178V57.7538H123.301V64.9178H121.188ZM121.299 56.4354C121.098 56.1918 120.944 55.9588 120.839 55.7364C120.733 55.5141 120.68 55.2758 120.68 55.0216C120.68 54.6616 120.775 54.3386 120.966 54.0527C121.156 53.7562 121.405 53.5285 121.712 53.3696C122.019 53.2002 122.358 53.1155 122.729 53.1155C122.93 53.1155 123.136 53.142 123.348 53.1949C123.56 53.2479 123.74 53.3273 123.888 53.4332L123.348 54.4021C123.253 54.3492 123.158 54.3174 123.062 54.3068C122.978 54.2856 122.888 54.2751 122.792 54.2751C122.538 54.2751 122.342 54.3439 122.205 54.4816C122.067 54.6086 121.998 54.7834 121.998 55.0057C121.998 55.1328 122.025 55.2546 122.078 55.3711C122.13 55.4876 122.21 55.6147 122.316 55.7523L121.299 56.4354ZM120.33 56.5624V55.4029H124.174V56.5624H120.33Z" fill="white"/>
<path d="M130.757 66.7604V55.5299H132.87V66.7604H130.757Z" fill="white"/>
<path d="M151.141 66.7604V64.9178H152.825V66.7604H151.141ZM143.008 70.9857C142.14 70.9857 141.356 70.8215 140.657 70.4933C139.958 70.1756 139.407 69.7308 139.005 69.159C138.603 68.5977 138.401 67.957 138.401 67.2369C138.401 67.0145 138.417 66.7233 138.449 66.3633C138.491 66.0032 138.539 65.6061 138.592 65.1719C138.656 64.7377 138.719 64.2877 138.783 63.8217C138.857 63.3558 138.926 62.9163 138.989 62.5033L141.086 62.8051C140.98 63.504 140.885 64.1447 140.8 64.7271C140.715 65.3096 140.646 65.8073 140.594 66.2203C140.551 66.6333 140.53 66.951 140.53 67.1734C140.53 67.597 140.625 67.9517 140.816 68.2376C141.017 68.5342 141.303 68.7565 141.674 68.9048C142.044 69.0636 142.489 69.1431 143.008 69.1431H146.725C147.498 69.1431 148.075 68.9842 148.456 68.6665C148.838 68.3594 149.028 67.9147 149.028 67.3322V60.1683L149.552 60.6289H147.551C147.085 60.6289 146.72 60.6872 146.455 60.8036C146.19 60.9201 146.005 61.1372 145.899 61.4549C145.793 61.762 145.74 62.2015 145.74 62.7733C145.74 63.3981 145.793 63.8641 145.899 64.1712C146.005 64.4677 146.19 64.6689 146.455 64.7748C146.72 64.8701 147.085 64.9178 147.551 64.9178H149.028V66.7604H147.551C146.651 66.7604 145.91 66.6227 145.327 66.3474C144.745 66.0615 144.311 65.622 144.025 65.029C143.749 64.4359 143.612 63.6841 143.612 62.7733C143.612 61.905 143.749 61.1743 144.025 60.5813C144.311 59.9882 144.745 59.5435 145.327 59.2469C145.91 58.9398 146.651 58.7863 147.551 58.7863H151.141V67.3322C151.141 68.0841 150.945 68.7301 150.553 69.2701C150.172 69.8208 149.648 70.2444 148.981 70.5409C148.324 70.8374 147.572 70.9857 146.725 70.9857H143.008ZM152.825 66.7604V64.9178C152.952 64.9178 153.036 65.0025 153.079 65.1719C153.121 65.3308 153.142 65.5531 153.142 65.8391C153.142 66.1144 153.121 66.3368 153.079 66.5062C153.036 66.6757 152.952 66.7604 152.825 66.7604ZM145.518 57.8332V56.0224H147.646V57.8332H145.518ZM147.694 57.8332V56.0224H149.823V57.8332H147.694Z" fill="white"/>
<path d="M161.057 66.7604V64.9178H162.741V66.7604H161.057ZM152.829 66.7604V64.9178H159.659L158.944 65.5055V62.5668C158.944 61.9314 158.743 61.4496 158.341 61.1213C157.949 60.793 157.324 60.6289 156.466 60.6289C156.223 60.6289 155.889 60.6501 155.465 60.6924C155.042 60.7242 154.581 60.7772 154.083 60.8513L153.877 59.1675C154.332 59.0616 154.793 58.9716 155.259 58.8975C155.735 58.8234 156.201 58.7863 156.657 58.7863C157.525 58.7863 158.288 58.9398 158.944 59.2469C159.601 59.5435 160.114 59.9723 160.485 60.5336C160.866 61.0949 161.057 61.7726 161.057 62.5668V66.7604H152.829ZM152.829 66.7604C152.701 66.7604 152.617 66.6757 152.574 66.5062C152.532 66.3368 152.511 66.1144 152.511 65.8391C152.511 65.5531 152.532 65.3308 152.574 65.1719C152.617 65.0025 152.701 64.9178 152.829 64.9178V66.7604ZM162.741 66.7604V64.9178C162.857 64.9178 162.936 65.0025 162.979 65.1719C163.032 65.3308 163.058 65.5531 163.058 65.8391C163.058 66.1144 163.032 66.3368 162.979 66.5062C162.936 66.6757 162.857 66.7604 162.741 66.7604Z" fill="white"/>
<path d="M167.379 66.7604V64.9178H169.365V66.7604H167.379ZM169.365 66.7604V64.9178C169.492 64.9178 169.577 65.0025 169.619 65.1719C169.661 65.3308 169.683 65.5531 169.683 65.8391C169.683 66.1144 169.661 66.3368 169.619 66.5062C169.577 66.6757 169.492 66.7604 169.365 66.7604ZM162.741 66.7604V64.9178H166.506L165.267 65.9503V58.7863H167.379V66.7604H162.741ZM162.741 66.7604C162.613 66.7604 162.529 66.6757 162.487 66.5062C162.444 66.3368 162.423 66.1144 162.423 65.8391C162.423 65.5531 162.444 65.3308 162.487 65.1719C162.529 65.0025 162.613 64.9178 162.741 64.9178V66.7604ZM163.376 57.8332V56.0224H165.505V57.8332H163.376ZM165.553 57.8332V56.0224H167.681V57.8332H165.553Z" fill="white"/>
<path d="M182.692 66.7604V64.9178H184.376V66.7604H182.692ZM178.705 66.7604C178.271 66.7604 177.836 66.681 177.402 66.5221C176.979 66.3527 176.587 66.1038 176.227 65.7755L177.529 64.4253C177.741 64.5948 177.937 64.7218 178.117 64.8066C178.308 64.8807 178.504 64.9178 178.705 64.9178H181.675L180.579 65.9185V62.3921C180.579 62.2227 180.558 61.9685 180.516 61.6296C180.484 61.2802 180.431 60.8884 180.357 60.4542C180.293 60.0094 180.214 59.5593 180.119 59.104L182.215 58.7863C182.289 59.1675 182.358 59.5964 182.422 60.0729C182.496 60.5389 182.56 60.9837 182.612 61.4073C182.665 61.8203 182.692 62.1485 182.692 62.3921V66.7604H178.705ZM169.365 66.7604V64.9178H171.684L171.207 65.4102V60.4065H173.336V66.7604H169.365ZM173.336 66.7604V64.9178H174.623C174.961 64.9178 175.221 64.8701 175.401 64.7748C175.581 64.6689 175.703 64.4624 175.766 64.1553C175.84 63.8376 175.877 63.3664 175.877 62.7416V59.6123H178.006V62.7416C178.006 63.6841 177.884 64.4518 177.641 65.0448C177.408 65.6379 177.042 66.072 176.545 66.3474C176.047 66.6227 175.406 66.7604 174.623 66.7604H173.336ZM169.365 66.7604C169.238 66.7604 169.153 66.6757 169.111 66.5062C169.068 66.3368 169.047 66.1144 169.047 65.8391C169.047 65.5531 169.068 65.3308 169.111 65.1719C169.153 65.0025 169.238 64.9178 169.365 64.9178V66.7604ZM184.376 66.7604V64.9178C184.503 64.9178 184.587 65.0025 184.63 65.1719C184.672 65.3308 184.693 65.5531 184.693 65.8391C184.693 66.1144 184.672 66.3368 184.63 66.5062C184.587 66.6757 184.503 66.7604 184.376 66.7604Z" fill="white"/>
<path d="M184.381 66.7604V64.9178H187.288L186.049 65.9503V58.7863H188.177V66.7604H184.381ZM184.381 66.7604C184.254 66.7604 184.169 66.6757 184.126 66.5062C184.084 66.3368 184.063 66.1144 184.063 65.8391C184.063 65.5531 184.084 65.3308 184.126 65.1719C184.169 65.0025 184.254 64.9178 184.381 64.9178V66.7604ZM186.049 57.3249V55.5141H188.177V57.3249H186.049Z" fill="white"/>
<path d="M68.7114 85.4023V76.5873H71.0346L73.861 82.7823H74.0933V76.5873H75.8744V85.4023H73.5771L70.7248 79.104H70.4925V85.4023H68.7114Z" fill="#A3A3A3"/>
<path d="M80.968 85.5442C80.0302 85.5442 79.2859 85.3807 78.7353 85.0538C78.1932 84.7182 77.8017 84.2149 77.5608 83.5438C77.3285 82.8726 77.2123 82.0337 77.2123 81.027C77.2123 80.0117 77.3285 79.1642 77.5608 78.4845C77.8017 77.8048 78.1932 77.2928 78.7353 76.9487C79.2859 76.6045 80.0302 76.4324 80.968 76.4324C81.9059 76.4324 82.6459 76.6045 83.1879 76.9487C83.7386 77.2928 84.1301 77.8048 84.3624 78.4845C84.6033 79.1642 84.7238 80.0117 84.7238 81.027C84.7238 82.0509 84.6033 82.8984 84.3624 83.5696C84.1301 84.2407 83.7386 84.7397 83.1879 85.0667C82.6459 85.385 81.9059 85.5442 80.968 85.5442ZM80.968 84.0471C81.5101 84.0471 81.9188 83.9395 82.1941 83.7244C82.4781 83.5007 82.6674 83.1652 82.762 82.7178C82.8567 82.2617 82.904 81.6982 82.904 81.027C82.904 80.3559 82.8524 79.7923 82.7491 79.3363C82.6545 78.8717 82.4695 78.5232 82.1941 78.2909C81.9188 78.05 81.5101 77.9295 80.968 77.9295C80.4346 77.9295 80.0259 78.05 79.7419 78.2909C79.4666 78.5232 79.2773 78.8717 79.1741 79.3363C79.0708 79.7923 79.0192 80.3559 79.0192 81.027C79.0192 81.6896 79.0665 82.2445 79.1612 82.6919C79.2644 83.1394 79.4537 83.4792 79.729 83.7115C80.013 83.9352 80.426 84.0471 80.968 84.0471Z" fill="#A3A3A3"/>
<path d="M89.3837 85.5442C88.661 85.5442 88.0458 85.4496 87.5381 85.2603C87.0391 85.071 86.6605 84.7569 86.4024 84.3181C86.1443 83.8707 86.0152 83.277 86.0152 82.5371V76.5873H87.7963V82.6016C87.7963 83.1092 87.9296 83.4749 88.1964 83.6986C88.4717 83.9223 88.8675 84.0342 89.3837 84.0342C89.9258 84.0342 90.3345 83.9223 90.6098 83.6986C90.8852 83.4749 91.0228 83.1092 91.0228 82.6016V76.5873H92.8039V82.5113C92.8039 83.2512 92.6705 83.8449 92.4038 84.2923C92.1457 84.7397 91.7628 85.0624 91.2551 85.2603C90.7561 85.4496 90.1323 85.5442 89.3837 85.5442Z" fill="#A3A3A3"/>
<path d="M97.2124 85.5442C96.8854 85.5442 96.5283 85.5227 96.1412 85.4797C95.754 85.4453 95.3754 85.4023 95.0054 85.3506C94.644 85.2904 94.3343 85.2388 94.0762 85.1958L94.1923 83.789C94.459 83.8234 94.7688 83.8621 95.1216 83.9051C95.4743 83.9395 95.8228 83.9697 96.167 83.9955C96.5197 84.0213 96.8252 84.0342 97.0833 84.0342C97.5738 84.0342 97.9308 83.9395 98.1545 83.7503C98.3782 83.5524 98.4901 83.2469 98.4901 82.8339C98.4901 82.6102 98.4428 82.4338 98.3481 82.3048C98.2621 82.1671 98.1029 82.0595 97.8706 81.9821C97.6383 81.8961 97.3156 81.8143 96.9026 81.7369C96.2143 81.6078 95.655 81.4486 95.2248 81.2593C94.8032 81.0701 94.4935 80.8033 94.2956 80.4592C94.1063 80.115 94.0116 79.6547 94.0116 79.0782C94.0116 78.4071 94.1364 77.8822 94.3859 77.5036C94.6354 77.1164 94.9925 76.8411 95.4571 76.6776C95.9218 76.5141 96.4681 76.4324 97.0962 76.4324C97.3802 76.4324 97.7028 76.4496 98.0642 76.484C98.4342 76.5098 98.7955 76.5443 99.1483 76.5873C99.5097 76.6303 99.8151 76.6776 100.065 76.7292L99.9872 78.1489C99.7291 78.1145 99.428 78.0844 99.0838 78.0586C98.7482 78.0242 98.4127 77.9941 98.0771 77.9682C97.7501 77.9424 97.4705 77.9295 97.2382 77.9295C96.7478 77.9295 96.3864 78.007 96.1541 78.1618C95.9218 78.3167 95.8056 78.5662 95.8056 78.9104C95.8056 79.1685 95.8572 79.3664 95.9605 79.5041C96.0637 79.6418 96.2358 79.7536 96.4767 79.8397C96.7262 79.9257 97.0661 80.016 97.4963 80.1107C98.004 80.2225 98.4342 80.343 98.7869 80.4721C99.1483 80.6011 99.4366 80.756 99.6517 80.9367C99.8754 81.1174 100.039 81.3497 100.142 81.6336C100.245 81.9176 100.297 82.2746 100.297 82.7048C100.297 83.3932 100.172 83.9482 99.9227 84.3698C99.6818 84.7828 99.329 85.0839 98.8644 85.2732C98.4084 85.4539 97.8577 85.5442 97.2124 85.5442Z" fill="#A3A3A3"/>
<path d="M104.342 85.4023V76.5873H107.207L108.989 82.4725L110.731 76.5873H113.635V85.4023H111.854V78.8717H111.673L109.827 85.1699H108.15L106.304 78.8717H106.123V85.4023H104.342Z" fill="#A3A3A3"/>
<path d="M115.257 85.4023V76.5873H121.117V78.0715H117.038V80.2139H120.342V81.6723H117.038V83.918H121.117V85.4023H115.257ZM117.593 75.6967L116.574 75.245L118.522 73.7866L119.903 74.3416L117.593 75.6967Z" fill="#A3A3A3"/>
<path d="M122.366 85.4023V76.5873H125.812C126.517 76.5873 127.107 76.6776 127.58 76.8583C128.062 77.039 128.419 77.3401 128.651 77.7617C128.892 78.1834 129.012 78.7555 129.012 79.4783C129.012 80.115 128.896 80.6528 128.664 81.0916C128.44 81.5218 128.096 81.8401 127.631 82.0466L129.012 85.4023H127.141L125.979 82.4467H124.147V85.4023H122.366ZM124.147 80.9883H125.85C126.177 80.9883 126.44 80.9281 126.638 80.8076C126.836 80.6786 126.978 80.5022 127.064 80.2785C127.15 80.0462 127.193 79.7837 127.193 79.4912C127.193 79.0094 127.081 78.648 126.857 78.4071C126.633 78.1661 126.285 78.0457 125.812 78.0457H124.147V80.9883Z" fill="#A3A3A3"/>
<path d="M130.319 85.4023V76.5873H132.1V85.4023H130.319Z" fill="#A3A3A3"/>
<path d="M135.438 85.4023V78.0973H133.063V76.5873H139.516V78.0973H137.219V85.4023H135.438Z" fill="#A3A3A3"/>
<path d="M143.962 85.5442C143.024 85.5442 142.28 85.3807 141.729 85.0538C141.187 84.7182 140.795 84.2149 140.554 83.5438C140.322 82.8726 140.206 82.0337 140.206 81.027C140.206 80.0117 140.322 79.1642 140.554 78.4845C140.795 77.8048 141.187 77.2928 141.729 76.9487C142.28 76.6045 143.024 76.4324 143.962 76.4324C144.9 76.4324 145.639 76.6045 146.182 76.9487C146.732 77.2928 147.124 77.8048 147.356 78.4845C147.597 79.1642 147.717 80.0117 147.717 81.027C147.717 82.0509 147.597 82.8984 147.356 83.5696C147.124 84.2407 146.732 84.7397 146.182 85.0667C145.639 85.385 144.9 85.5442 143.962 85.5442ZM143.962 84.0471C144.504 84.0471 144.912 83.9395 145.188 83.7244C145.472 83.5007 145.661 83.1652 145.756 82.7178C145.85 82.2617 145.898 81.6982 145.898 81.027C145.898 80.3559 145.846 79.7923 145.743 79.3363C145.648 78.8717 145.463 78.5232 145.188 78.2909C144.912 78.05 144.504 77.9295 143.962 77.9295C143.428 77.9295 143.02 78.05 142.736 78.2909C142.46 78.5232 142.271 78.8717 142.168 79.3363C142.064 79.7923 142.013 80.3559 142.013 81.027C142.013 81.6896 142.06 82.2445 142.155 82.6919C142.258 83.1394 142.447 83.4792 142.723 83.7115C143.007 83.9352 143.42 84.0471 143.962 84.0471Z" fill="#A3A3A3"/>
<path d="M149.06 85.4023V76.5873H151.384L154.21 82.7823H154.442V76.5873H156.223V85.4023H153.926L151.074 79.104H150.842V85.4023H149.06Z" fill="#A3A3A3"/>
<path d="M160.698 85.5442C160.371 85.5442 160.014 85.5227 159.626 85.4797C159.239 85.4453 158.861 85.4023 158.491 85.3506C158.129 85.2904 157.819 85.2388 157.561 85.1958L157.678 83.789C157.944 83.8234 158.254 83.8621 158.607 83.9051C158.96 83.9395 159.308 83.9697 159.652 83.9955C160.005 84.0213 160.31 84.0342 160.569 84.0342C161.059 84.0342 161.416 83.9395 161.64 83.7503C161.863 83.5524 161.975 83.2469 161.975 82.8339C161.975 82.6102 161.928 82.4338 161.833 82.3048C161.747 82.1671 161.588 82.0595 161.356 81.9821C161.123 81.8961 160.801 81.8143 160.388 81.7369C159.699 81.6078 159.14 81.4486 158.71 81.2593C158.288 81.0701 157.979 80.8033 157.781 80.4592C157.591 80.115 157.497 79.6547 157.497 79.0782C157.497 78.4071 157.622 77.8822 157.871 77.5036C158.121 77.1164 158.478 76.8411 158.942 76.6776C159.407 76.5141 159.953 76.4324 160.581 76.4324C160.865 76.4324 161.188 76.4496 161.549 76.484C161.919 76.5098 162.281 76.5443 162.633 76.5873C162.995 76.6303 163.3 76.6776 163.55 76.7292L163.472 78.1489C163.214 78.1145 162.913 78.0844 162.569 78.0586C162.233 78.0242 161.898 77.9941 161.562 77.9682C161.235 77.9424 160.956 77.9295 160.723 77.9295C160.233 77.9295 159.872 78.007 159.639 78.1618C159.407 78.3167 159.291 78.5662 159.291 78.9104C159.291 79.1685 159.342 79.3664 159.446 79.5041C159.549 79.6418 159.721 79.7536 159.962 79.8397C160.211 79.9257 160.551 80.016 160.981 80.1107C161.489 80.2225 161.919 80.343 162.272 80.4721C162.634 80.6011 162.922 80.756 163.137 80.9367C163.361 81.1174 163.524 81.3497 163.627 81.6336C163.731 81.9176 163.782 82.2746 163.782 82.7048C163.782 83.3932 163.657 83.9482 163.408 84.3698C163.167 84.7828 162.814 85.0839 162.35 85.2732C161.894 85.4539 161.343 85.5442 160.698 85.5442Z" fill="#A3A3A3"/>
<path d="M167.827 85.4023V76.5873H170.693L172.474 82.4725L174.216 76.5873H177.12V85.4023H175.339V78.8717H175.158L173.313 85.1699H171.635L169.789 78.8717H169.609V85.4023H167.827Z" fill="#A3A3A3"/>
<path d="M178.742 85.4023V76.5873H180.523V85.4023H178.742Z" fill="#A3A3A3"/>
<path d="M182.158 85.4023V76.5873H188.017V78.0715H183.939V80.2139H187.243V81.6723H183.939V83.918H188.017V85.4023H182.158Z" fill="#A3A3A3"/>
<path d="M192.583 85.5442C191.861 85.5442 191.245 85.4496 190.738 85.2603C190.239 85.071 189.86 84.7569 189.602 84.3181C189.344 83.8707 189.215 83.277 189.215 82.5371V76.5873H190.996V82.6016C190.996 83.1092 191.129 83.4749 191.396 83.6986C191.671 83.9223 192.067 84.0342 192.583 84.0342C193.125 84.0342 193.534 83.9223 193.809 83.6986C194.085 83.4749 194.222 83.1092 194.222 82.6016V76.5873H196.004V82.5113C196.004 83.2512 195.87 83.8449 195.603 84.2923C195.345 84.7397 194.962 85.0624 194.455 85.2603C193.956 85.4496 193.332 85.5442 192.583 85.5442Z" fill="#A3A3A3"/>
<path d="M196.85 85.4023L199.25 81.1174L196.85 76.5873H198.734L200.412 79.8268L202.18 76.5873H204L201.587 80.9496L203.948 85.4023H202.051L200.399 82.2531L198.696 85.4023H196.85Z" fill="#A3A3A3"/>
<path d="M2.04752 58.1404C-6.11894 54.795 -18.8771 66.6744 -18.8771 66.6744C-18.6415 68.6902 -18.1782 70.636 -17.5137 72.4847C-15.6746 75.7969 -6.44303 73.2972 2.38393 70.9071C8.74621 69.1843 14.8983 67.5185 17.9204 68.127C25.1353 69.5795 31.3489 72.4847 31.3489 72.4847C32.3471 69.7075 32.8913 66.7115 32.8913 63.5876C29.1035 66.6744 11.5234 62.0221 2.04752 58.1404Z" fill="#A0A0A0"/>
<path fill-rule="evenodd" clip-rule="evenodd" d="M6.9176 37.4409C21.2625 37.4409 32.8913 49.1472 32.8913 63.5876C29.1035 66.6744 11.5234 62.0221 2.04752 58.1404C-6.11894 54.795 -18.8771 66.6744 -18.8771 66.6744C-18.9953 65.662 -19.0562 64.632 -19.0562 63.5876C-19.0562 49.1472 -7.42731 37.4409 6.9176 37.4409Z" fill="#E1E1E1"/>
<path d="M-17.5137 72.4847C-13.8976 82.5451 -4.32402 89.7343 6.9176 89.7343C18.1592 89.7343 27.7328 82.5451 31.3489 72.4847C31.3489 72.4847 25.1353 69.5795 17.9204 68.127C14.8983 67.5185 8.74621 69.1843 2.38393 70.9071C-6.44303 73.2972 -15.6746 75.7969 -17.5137 72.4847Z" fill="#5C5C5C"/>
<path d="M22.5753 46.6622C22.7592 46.7653 22.9825 46.7918 23.1559 46.9267C22.8249 46.887 22.4938 46.842 22.1628 46.8129C20.4366 46.6595 18.9994 47.2626 17.7934 48.4898C17.6647 48.6221 17.5806 48.6194 17.4834 48.4686C17.4072 48.3496 17.3126 48.2412 17.2285 48.1275C16.0041 46.5458 14.3778 45.8793 12.3993 45.9851C12.6962 45.8476 13.3189 45.7497 13.8838 45.7629C15.3053 45.7894 16.5323 46.2972 17.5675 47.2784C17.6962 47.4001 17.7698 47.4001 17.9143 47.3075C19.3042 46.4162 20.7992 46.1808 22.3966 46.6225C22.4571 46.6331 22.5149 46.6463 22.5753 46.6622ZM23.1665 46.9267H23.1559L23.1638 46.9293L23.1665 46.9267ZM15.3736 50.4285C14.1676 50.3439 13.1376 50.73 12.2706 51.5685C12.1813 51.6584 12.1287 51.6716 12.021 51.6002C11.1408 51.0501 10.195 50.8676 9.17027 51.0501C8.76302 51.1215 8.33212 51.2802 8.1377 51.423C9.5381 51.0606 10.7914 51.3013 11.8949 52.2535C11.9711 52.3249 12.0525 52.3884 12.1261 52.4624C12.2181 52.555 12.2785 52.5418 12.3521 52.4281C13.0352 51.3833 13.9784 50.738 15.2343 50.5978C15.476 50.5713 15.7178 50.5581 15.9595 50.537C15.8123 50.4655 15.6521 50.4814 15.5076 50.4338C15.4576 50.4338 15.4182 50.4338 15.3736 50.4285ZM21.0672 54.0071C20.4182 53.8907 19.8323 54.0309 19.3094 54.4382C19.2516 54.4779 19.228 54.4831 19.1728 54.4382C18.7445 54.0891 18.2033 53.9198 17.6568 53.9621C17.4308 53.9806 17.1891 54.0415 17.0761 54.1049C17.8565 53.9912 18.5265 54.2028 19.0677 54.7873C19.1045 54.827 19.1439 54.8693 19.1807 54.9116C19.2253 54.9698 19.2569 54.9645 19.3042 54.909C19.7403 54.38 20.2921 54.0891 20.9831 54.0891C21.1145 54.0891 21.2485 54.097 21.3798 54.097C21.3089 54.0494 21.2195 54.0494 21.1381 54.0124C21.1118 54.015 21.0908 54.0124 21.0672 54.0071Z" fill="white"/>
<mask id="mask0_72_111" style="mask-type:luminance" maskUnits="userSpaceOnUse" x="-6" y="50" width="12" height="10">
<path d="M-5.94678 50.6353H5.65585V59.2682H-5.94678V50.6353Z" fill="white"/>
</mask>
<g mask="url(#mask0_72_111)">
<path d="M-4.28924 54.077L-4.36281 53.8972L-4.34179 53.3127C-4.33916 53.3127 -4.21305 53.757 -4.28924 54.077ZM5.72118 51.4348C5.70804 51.2444 5.52149 51.0883 5.52149 51.0883C5.26926 50.9032 4.84099 50.9561 4.84099 50.9561C4.53096 50.9957 4.26559 50.8265 4.26559 50.8265C3.97921 50.6413 3.68231 50.8503 3.68231 50.8503C3.38016 50.7471 3.31973 50.9614 3.31973 50.9614L3.34863 51.0328C3.29345 51.0513 3.27506 51.1756 3.27506 51.1756C3.28032 51.2734 3.212 51.4269 3.212 51.4269C3.0964 51.6226 2.92562 52.3076 2.92562 52.3076C2.81789 52.789 2.37386 52.7996 2.37386 52.7996C1.89042 52.789 1.63293 52.1859 1.63293 52.1859C1.33866 51.5617 0.208878 51.2734 0.208878 51.2734C-0.0748823 51.2258 -0.31923 51.0592 -0.31923 51.0592C-0.781654 50.681 -1.32553 50.7471 -1.32553 50.7471C-1.9272 50.7709 -2.43429 51.5088 -2.43429 51.5088C-2.57354 51.5617 -3.44059 51.8051 -3.44059 51.8051C-3.67705 51.8421 -3.82156 52.1225 -3.82156 52.1225C-3.86623 52.2785 -4.00548 52.3737 -4.00548 52.3737C-5.00389 52.9133 -4.6019 53.8231 -4.6019 53.8231C-4.40222 54.2807 -4.52045 54.7409 -4.52045 54.7409C-4.573 54.8573 -4.6019 55.0424 -4.6019 55.0424C-4.74115 55.3889 -5.28503 55.8782 -5.28503 55.8782C-5.55565 56.0713 -5.48996 56.4336 -5.48996 56.4336C-5.4453 56.6981 -5.46632 57.407 -5.46632 57.407C-5.51887 58.0523 -5.79212 58.2666 -5.79212 58.2666C-5.83415 58.3009 -5.85517 58.3327 -5.86568 58.3591C-5.86831 58.375 -5.86831 58.3935 -5.87094 58.4147C-5.87094 58.4226 -5.87357 58.4332 -5.87357 58.4438C-5.88933 58.7532 -5.70278 58.9754 -5.70278 58.9754C-5.49785 59.2055 -5.46106 58.7532 -5.46106 58.7532C-5.4453 58.4887 -5.24562 58.3618 -5.24562 58.3618C-5.14315 58.2798 -5.21934 58.0232 -5.21934 58.0232C-5.1957 57.5577 -5.10899 57.1345 -5.10899 57.1345C-4.99076 56.5289 -4.65182 56.2035 -4.65182 56.2035C-4.54935 56.1163 -4.06328 55.619 -4.06328 55.619C-4.06066 55.9655 -4.19991 56.5103 -4.19991 56.5103C-4.29975 56.7828 -4.19728 56.9494 -4.19728 56.9494C-4.14999 57.034 -4.09481 57.2351 -3.96344 57.481C-3.82944 57.7296 -3.60086 58.621 -3.60086 58.621C-3.61662 58.7876 -3.50365 58.9966 -3.50365 58.9966C-3.53517 59.1976 -3.15157 59.2002 -3.15157 59.2002C-2.71805 59.2452 -2.73907 59.0759 -2.73907 59.0759C-2.73644 59.0071 -2.97028 58.9833 -2.97028 58.9833C-3.10691 58.9225 -3.17259 58.7797 -3.17259 58.7797C-3.17259 58.6765 -3.30922 58.502 -3.30922 58.502C-3.43796 58.2507 -3.54306 57.5974 -3.54306 57.5974C-3.55357 57.5286 -3.56933 57.3488 -3.56933 57.3488C-3.5667 57.2589 -3.57984 56.6135 -3.57984 56.6135C-3.58772 56.5632 -3.53517 56.3173 -3.53517 56.3173C-3.49839 56.185 -3.46949 55.7327 -3.46949 55.7327C-3.47474 55.6931 -3.42482 55.6005 -3.42482 55.6005C-3.30922 55.5423 -3.05436 55.0609 -3.05436 55.0609C-2.88883 54.897 -2.91773 54.7912 -2.91773 54.7912L-2.92299 54.5478C-2.51574 54.159 -2.01653 54.5399 -2.01653 54.5399C-1.74854 54.7515 -0.842084 54.8017 -0.842084 54.8017C-0.666048 54.8017 -0.497894 54.9181 -0.497894 54.9181C-0.574088 54.9948 -0.776399 55.5423 -0.776399 55.5423C-0.892004 55.9549 -1.21518 56.595 -1.21518 56.595C-1.33604 56.7219 -1.31502 56.9468 -1.31502 56.9468C-1.32815 57.4149 -1.76168 58.2957 -1.76168 58.2957C-1.84575 58.3829 -1.8405 58.5601 -1.8405 58.5601C-1.84313 58.6712 -1.96399 58.8775 -1.96399 58.8775C-2.24775 59.1738 -1.59089 59.1314 -1.59089 59.1314C-1.14949 59.142 -1.24408 59.0045 -1.24408 59.0045C-1.28612 58.9013 -1.44901 58.8431 -1.44901 58.8431L-1.45427 58.7585C-1.4096 58.6686 -1.34392 58.3115 -1.34392 58.3115C-1.22306 57.5974 -0.878867 57.1927 -0.878867 57.1927C-0.624009 57.0658 -0.684439 56.8119 -0.684439 56.8119C-0.584598 56.3331 -0.0486075 55.6455 -0.0486075 55.6455C0.0722528 55.5 0.290328 55.1059 0.290328 55.1059C0.348131 54.9049 0.679184 54.7885 0.679184 54.7885C0.78428 54.8573 0.870984 55.1429 0.870984 55.1429C0.949807 55.4788 1.22568 56.5289 1.22568 56.5289C1.28086 57.2483 1.56987 57.481 1.56987 57.481C1.66709 57.7217 1.99814 58.9384 1.99814 58.9384C1.82473 59.224 2.39751 59.1314 2.39751 59.1314C3.0202 59.224 2.91773 59.0574 2.91773 59.0574C2.79425 58.8061 2.40802 58.6686 2.40802 58.6686C2.04543 58.1661 1.93771 57.4308 1.93771 57.4308C2.05069 56.7616 1.82473 56.7457 1.82473 56.7457C1.64081 56.3226 1.61454 54.7753 1.61454 54.7753C1.61191 54.6695 1.67234 54.5743 1.67234 54.5743C1.71964 54.5584 1.92457 54.3071 1.92457 54.3071C2.0034 54.3362 2.29241 54.2966 2.29241 54.2966C2.26088 54.4844 2.77848 54.3442 2.77848 54.3442C4.24457 53.6935 4.33916 52.3235 4.33916 52.3235C4.43112 52.3182 4.74378 52.0563 4.74378 52.0563C4.81998 51.9505 4.99864 51.7866 4.99864 51.7866C5.11687 51.7892 5.24299 51.6966 5.24299 51.6966C5.70804 51.8157 5.63184 51.6041 5.63184 51.6041C5.7711 51.6014 5.72118 51.4348 5.72118 51.4348Z" fill="#A4A4A4"/>
</g>
<path d="M-21.1457 64.5618C-21.1457 48.2957 -8.04543 35.1082 8.11575 35.1082C15.504 35.1082 22.2512 37.8668 27.4009 42.4134C21.7993 33.672 12.0385 27.8823 0.937677 27.8823C-16.4426 27.8823 -30.5308 42.0669 -30.5308 59.5603C-30.5308 74.7605 -19.895 87.4587 -5.70703 90.5294C-14.8977 85.5623 -21.1457 75.7973 -21.1457 64.5618Z" fill="white"/>
<path fill-rule="evenodd" clip-rule="evenodd" d="M20.2584 9.55481C20.0866 8.74976 20.1301 8.09344 20.7468 8.10757C21.5311 8.45678 22.4496 8.81963 23.4714 9.22324C31.376 12.3458 45.4561 17.9079 51.3337 38.4648C56.5519 56.7152 56.266 76.7823 43.3878 91.7744C29.818 107.568 8.09461 110.492 -10.5896 101.423C-25.413 94.2271 -30.7509 81.3015 -32.6069 66.0031C-28.6684 75.3946 -23.5197 85.5816 -13.6896 90.3784C4.91505 99.4589 23.6336 94.1203 35.9434 78.4393C39.8119 73.51 39.6183 66.4945 35.5534 61.7302C32.7496 58.4374 29.5374 54.6378 27.5992 49.3545C24.2134 40.1142 29.4082 36.5495 27.6435 32.9695C29.75 32.5099 30.7173 35.8363 31.7416 39.3588C32.8656 43.224 34.0582 47.3254 36.8999 46.92C45.1706 45.7412 38.6412 19.3231 23.1847 13.0091C21.7058 12.4059 20.5933 11.1232 20.2584 9.55481Z" fill="white"/>
<path d="M23.2777 22.669C31.3138 25.9648 36.931 34.6915 39.3077 42.4729C39.4514 39.7518 38.7727 36.0806 37.3657 32.3867C35.4824 27.4481 32.6908 23.1825 29.4082 20.0822C26.0021 18.5032 22.3794 19.2608 20.8147 17.7594C20.1839 17.7446 20.154 18.4325 20.3395 19.2608C20.69 20.8182 21.8104 22.0673 23.2777 22.669Z" fill="#CDCDCD"/>
</svg>
